<svg width="122" height="13" viewBox="0 0 122 13" fill="none" xmlns="http://www.w3.org/2000/svg">
<path d="M23.0284 2.54901C22.905 2.28079 22.6817 2.06198 22.4179 1.87362C21.9946 1.56781 21.5064 1.34222 20.9911 1.15314C19.6495 0.663619 18.2277 0.389658 16.7705 0.232095C15.893 0.138301 15.0069 0.0791806 14.123 0.0329839C12.8941 -0.0275154 11.6651 -0.00101738 10.4402 0.0817124C9.46069 0.148708 8.48659 0.25611 7.52643 0.42227C6.42493 0.614934 5.34596 0.86417 4.34072 1.28064C3.8304 1.49192 3.35551 1.74079 2.97725 2.08779C2.39107 2.62494 2.37711 3.25914 2.9733 3.79056C3.20698 3.99755 3.48182 4.18268 3.76919 4.3381C4.52142 4.74955 5.37064 4.99808 6.23953 5.20542C7.14422 5.42386 8.07037 5.57068 9.00619 5.67883C9.36441 5.71933 9.72442 5.74939 10.0941 5.78448C10.6878 4.16515 11.2779 2.5569 11.8684 0.948308C11.8748 0.952369 11.8831 0.953387 11.8909 0.955418C11.9876 2.59229 12.0831 4.22774 12.1808 5.87393C12.3096 5.879 12.422 5.89007 12.534 5.88713C13.2601 5.8721 13.9855 5.86277 14.7088 5.83273C15.8221 5.78908 16.9275 5.66834 18.0183 5.4868C19.0958 5.30559 20.1505 5.06709 21.1435 4.6807C21.7312 4.44973 22.288 4.18295 22.7085 3.77185C23.0807 3.4091 23.2396 3.00694 23.0284 2.54929" fill="white"/>
<path d="M9.70352 6.00315C8.42021 6.03005 7.14622 6.12884 5.88653 6.33154C4.66943 6.5292 3.48489 6.80458 2.37265 7.25507C1.66622 7.54262 1.01026 7.88533 0.516403 8.38917C0.06764 8.84861 -0.130255 9.35712 0.0909049 9.93151C0.275921 10.4096 0.674578 10.768 1.15233 11.076C1.95824 11.5942 2.88869 11.9261 3.86173 12.1922C4.86769 12.4672 5.90514 12.6441 6.9569 12.7702C7.12152 12.7892 7.28507 12.8035 7.45004 12.8178C8.28494 10.5413 9.11412 8.27672 9.95009 6.00314C9.85525 6.00314 9.7801 6.00212 9.70352 6.00314" fill="white"/>
<path d="M18.9937 7.61459C18.0819 7.13151 17.072 6.82535 16.0266 6.58578C15.0253 6.35767 14.0026 6.21119 12.9665 6.11415C12.7167 6.0902 12.467 6.07619 12.2014 6.05762C12.3356 8.33228 12.467 10.589 12.5994 12.8551C12.6784 12.8551 12.7411 12.8612 12.8026 12.852C13.4378 12.7775 14.0756 12.7134 14.705 12.6189C15.8499 12.4445 16.9617 12.1802 18.0142 11.7788C18.7736 11.4877 19.4797 11.1385 20.0279 10.6146C20.6939 9.97971 20.7712 9.24096 20.2337 8.56665C19.9202 8.16916 19.4797 7.87156 18.9937 7.61445" fill="white"/>
<path d="M34.6323 4.92524C34.6323 5.05944 34.6323 5.46498 33.666 5.46498H28.4297V3.54845H33.666C34.6323 3.54845 34.6323 3.95448 34.6323 4.08819V4.92524ZM28.4297 7.10157H33.666C34.125 7.10157 34.3352 7.15967 34.4286 7.20697C34.603 7.30265 34.691 7.50046 34.691 7.79507V8.462C34.691 8.75606 34.603 8.95444 34.4319 9.04793C34.2928 9.11865 34.0354 9.15502 33.666 9.15502H28.4297V7.10157ZM35.7008 6.29387C36.5688 6.07862 37.0071 5.57966 37.0071 4.80566V3.72945C37.0071 2.53474 36.2113 1.92871 34.6405 1.92871H25.9186V10.9281H34.0163C36.0522 10.9281 37.0853 10.3166 37.0853 9.11049V7.98265C37.0853 7.09669 36.6198 6.53031 35.7008 6.29387Z" fill="white"/>
<path d="M47.3317 7.22438H43.279L45.3409 3.92456L47.3317 7.22438ZM46.6125 1.9292H44.229L38.4175 10.9286H41.0009L42.1698 8.99794H48.4191L49.6282 10.9286H52.5038L46.6429 1.97542L46.6125 1.9292Z" fill="white"/>
<path d="M63.8203 6.65078C63.8203 6.82634 63.8458 7.25138 63.898 7.91505C63.6498 7.69056 63.3293 7.43183 62.9409 7.14376L55.8643 1.95023L55.835 1.92898H54.0925V10.9284H56.4086V6.06966C56.4086 5.76529 56.3858 5.38481 56.3407 4.93639C56.5352 5.1163 56.7486 5.29076 56.9768 5.45654L64.3646 10.9066L64.3945 10.9284H66.1364V1.92896H63.8203L63.8203 6.65078Z" fill="white"/>
<path d="M79.1398 9.08631H71.6309V3.68514H79.1398V9.08631ZM79.0893 1.92896H71.6808C70.6819 1.92896 70.0154 2.07688 69.6401 2.38065C69.2637 2.68666 69.0801 3.2503 69.0801 4.10529V8.75202C69.0801 9.60701 69.2637 10.1712 69.6401 10.4767C70.0149 10.78 70.6819 10.9284 71.6808 10.9284H79.0893C80.0877 10.9284 80.7547 10.78 81.1295 10.4767C81.5065 10.1712 81.6895 9.60701 81.6895 8.75202V4.10529C81.6895 3.2503 81.5065 2.68666 81.1295 2.38065C80.7547 2.07682 80.0877 1.92896 79.0893 1.92896Z" fill="white"/>
<path d="M87.2163 3.6172H92.3738C92.8029 3.6172 92.9968 3.66727 93.0805 3.70687C93.2445 3.79269 93.3238 3.96396 93.3238 4.22975V5.29618C93.3238 5.56252 93.2445 5.73266 93.0843 5.81745C92.9968 5.85935 92.8034 5.90881 92.3738 5.90881H87.2163V3.6172ZM93.4292 7.597C95.0017 7.597 95.798 6.9915 95.798 5.79626V3.72972C95.798 2.53449 95.0017 1.92896 93.4292 1.92896H84.7046V10.9284H87.2163V7.597H89.2918L93.3173 10.9028L93.3483 10.9284H97.0403L92.3961 7.59705L93.4292 7.597Z" fill="white"/>
<path d="M97.7384 3.68542H102.359V10.9281H104.909V3.68542H109.548V1.92871H97.7384V3.68542Z" fill="white"/>
<path d="M114.116 9.08656V7.08469H118.887V5.39698H114.116V3.61745H121.888V1.9292H111.567V10.9281H121.985V9.08656H114.116Z" fill="white"/>
</svg>
