<svg width="95" height="10" viewBox="0 0 95 10" fill="none" xmlns="http://www.w3.org/2000/svg">
<path d="M17.911 1.98256C17.815 1.77395 17.6413 1.60376 17.4362 1.45726C17.1069 1.21941 16.7272 1.04395 16.3264 0.896883C15.2829 0.516148 14.1771 0.303067 13.0437 0.180519C12.3612 0.107568 11.672 0.0615849 10.9845 0.0256541C10.0287 -0.0214009 9.0729 -0.000791292 8.12015 0.0635541C7.35833 0.115662 6.60069 0.199196 5.85391 0.328432C4.99718 0.478282 4.15798 0.672132 3.37613 0.996054C2.97921 1.16038 2.60986 1.35395 2.31565 1.62384C1.85973 2.04162 1.84888 2.53489 2.31258 2.94821C2.49433 3.1092 2.7081 3.25319 2.9316 3.37408C3.51667 3.6941 4.17717 3.8874 4.85298 4.04866C5.55663 4.21856 6.27697 4.33275 7.00483 4.41687C7.28344 4.44837 7.56345 4.47175 7.85098 4.49904C8.31274 3.23956 8.77173 1.9887 9.23099 0.737573C9.23596 0.740731 9.24239 0.741524 9.24852 0.743103C9.32367 2.01623 9.39799 3.28824 9.47397 4.56861C9.57418 4.57256 9.66157 4.58116 9.74869 4.57888C10.3134 4.56719 10.8776 4.55994 11.4402 4.53657C12.3061 4.50262 13.1659 4.40871 14.0142 4.26751C14.8523 4.12657 15.6726 3.94107 16.445 3.64054C16.902 3.4609 17.3351 3.25341 17.6622 2.93366C17.9516 2.65152 18.0752 2.33873 17.911 1.98278" fill="#EB002B"/>
<path d="M7.54718 4.669C6.54906 4.68993 5.55817 4.76676 4.57841 4.92441C3.63178 5.07815 2.71047 5.29234 1.84539 5.64272C1.29595 5.86637 0.785755 6.13292 0.401647 6.5248C0.0526089 6.88214 -0.10131 7.27765 0.0707038 7.72439C0.214605 8.09622 0.524672 8.37503 0.896255 8.61456C1.52308 9.01758 2.24676 9.27577 3.00357 9.48272C3.78598 9.69662 4.59288 9.83421 5.41092 9.93225C5.53896 9.94701 5.66616 9.95814 5.79448 9.96927C6.44384 8.1987 7.08876 6.43734 7.73896 4.66899C7.66519 4.66899 7.60675 4.6682 7.54718 4.66899" fill="#EB002B"/>
<path d="M14.7729 5.92253C14.0637 5.5468 13.2782 5.30867 12.4652 5.12234C11.6864 4.94492 10.8909 4.831 10.0851 4.75552C9.8908 4.73689 9.69652 4.726 9.48999 4.71155C9.59437 6.48073 9.69652 8.23597 9.7995 9.99847C9.86101 9.99847 9.90973 10.0032 9.9576 9.9961C10.4517 9.93815 10.9477 9.8883 11.4373 9.81478C12.3277 9.67914 13.1925 9.47359 14.0111 9.16136C14.6017 8.93492 15.1509 8.66336 15.5773 8.25588C16.0953 7.76206 16.1554 7.18748 15.7373 6.66302C15.4935 6.35386 15.1509 6.12239 14.7729 5.92242" fill="#EB002B"/>
<path d="M26.9363 3.83063C26.9363 3.93501 26.9363 4.25043 26.1847 4.25043H22.112V2.7598H26.1847C26.9363 2.7598 26.9363 3.0756 26.9363 3.17959V3.83063ZM22.112 5.52334H26.1847C26.5417 5.52334 26.7052 5.56852 26.7779 5.60531C26.9135 5.67973 26.9819 5.83358 26.9819 6.06272V6.58144C26.9819 6.81016 26.9135 6.96446 26.7804 7.03717C26.6722 7.09218 26.472 7.12046 26.1847 7.12046H22.112V5.52334ZM27.7673 4.89512C28.4424 4.72771 28.7833 4.33963 28.7833 3.73763V2.90058C28.7833 1.97136 28.1644 1.5 26.9426 1.5H20.1589V8.49952H26.4572C28.0406 8.49952 28.8442 8.02392 28.8442 7.08583V6.20862C28.8442 5.51954 28.4821 5.07902 27.7673 4.89512Z" fill="#EB002B"/>
<path d="M36.8136 5.61896H33.6615L35.2652 3.05243L36.8136 5.61896ZM36.2543 1.50049H34.4004L29.8804 8.50002H31.8897L32.7988 6.9984H37.6594L38.5998 8.50002H40.8364L36.2779 1.53644L36.2543 1.50049Z" fill="#EB002B"/>
<path d="M49.6381 5.17271C49.6381 5.30926 49.658 5.63985 49.6985 6.15603C49.5055 5.98143 49.2562 5.7802 48.9541 5.55614L43.4501 1.51673L43.4273 1.5002H42.072V8.49973H43.8735V4.72073C43.8735 4.484 43.8557 4.18807 43.8206 3.8393C43.9719 3.97923 44.1379 4.11492 44.3154 4.24386L50.0614 8.48282L50.0847 8.49972H51.4396V1.50018H49.6381L49.6381 5.17271Z" fill="#EB002B"/>
<path d="M61.5532 7.06708H55.7129V2.86617H61.5532V7.06708ZM61.514 1.50024H55.7518C54.9749 1.50024 54.4565 1.61529 54.1646 1.85156C53.8718 2.08957 53.729 2.52796 53.729 3.19295V6.80707C53.729 7.47207 53.8718 7.91088 54.1646 8.14848C54.4561 8.38438 54.9749 8.49978 55.7518 8.49978H61.514C62.2905 8.49978 62.8093 8.38438 63.1008 8.14848C63.394 7.91088 63.5363 7.47207 63.5363 6.80707V3.19295C63.5363 2.52796 63.394 2.08957 63.1008 1.85156C62.8093 1.61525 62.2905 1.50024 61.514 1.50024Z" fill="#EB002B"/>
<path d="M67.8349 2.81332H71.8463C72.18 2.81332 72.3309 2.85227 72.3959 2.88307C72.5235 2.94981 72.5852 3.08302 72.5852 3.28975V4.1192C72.5852 4.32635 72.5235 4.45868 72.3989 4.52463C72.3309 4.55722 72.1805 4.59568 71.8463 4.59568H67.8349V2.81332ZM72.6671 5.90873C73.8902 5.90873 74.5096 5.43778 74.5096 4.50815V2.90084C74.5096 1.97121 73.8902 1.50024 72.6671 1.50024H65.8813V8.49978H67.8349V5.90873H69.4492L72.5801 8.47992L72.6042 8.49982H75.4758L71.8636 5.90876L72.6671 5.90873Z" fill="#EB002B"/>
<path d="M76.0189 2.86633H79.6125V8.49952H81.596V2.86633H85.2044V1.5H76.0189V2.86633Z" fill="#EB002B"/>
<path d="M88.7573 7.0672V5.51019H92.4675V4.19753H88.7573V2.81345H94.8021V1.50037H86.7742V8.49948H94.8777V7.0672H88.7573Z" fill="#EB002B"/>
</svg>
