<svg width="275" height="187" viewBox="0 0 275 187" fill="none" xmlns="http://www.w3.org/2000/svg">
<g filter="url(#filter0_d)">
<path d="M135.464 138.911C113.828 149.729 101.011 141.356 96.8691 137.716C106.859 154.181 120.411 168.749 138.137 179C155.767 168.805 169.26 154.339 179.233 137.984C170.187 134.194 153.458 129.913 135.464 138.911Z" fill="#BDC3C7"/>
</g>
<g filter="url(#filter1_d)">
<path d="M91.2026 116.744C91.673 115.439 92.293 114.173 93.0705 112.973L95.3767 109.507C95.4648 109.616 108.739 125.541 135.463 112.179C162.187 98.8172 186.153 114.742 186.242 114.852L186.436 115.074C187.992 114.79 189.419 114.633 190.79 114.537C198.401 94.98 201.974 74.4156 202.276 56.0696H199.74C184.146 56.0696 171.506 42.9106 171.506 26.6731V24H138.135H104.768V26.6725C104.768 42.91 92.1271 56.069 76.5336 56.069H74C74.3154 75.2756 78.2331 96.9142 86.6086 117.283C88.1559 117.155 89.6898 116.997 91.1756 116.77L91.2026 116.744Z" fill="#BDC3C7"/>
</g>
<g filter="url(#filter2_d)">
<path d="M216 122.985L215.733 122.881C208.293 119.735 202.664 112.186 186.801 115.075C192.782 121.873 193.651 131.649 188.91 138.127L186.604 141.588C199.966 138.916 204.228 145.915 212.488 149.408L212.756 149.512L204.092 132.299L216 122.985Z" fill="#EB002B"/>
</g>
<g filter="url(#filter3_d)">
<path d="M91.7415 136.243C86.5435 131.045 85.0953 123.426 87.5377 116.771C77.8769 118.238 66.6663 117.618 57.2779 114.935L57 114.863L67.6896 130.898L57 141.587L57.2779 141.66C69.4133 145.126 87.6231 145.053 99.7585 141.587L93.3929 137.854C92.3134 136.924 91.7575 136.264 91.7415 136.243Z" fill="#EB002B"/>
</g>
<g filter="url(#filter4_d)">
<path d="M95.6069 109.507C95.695 109.616 108.969 125.541 135.693 112.179C154.657 102.698 172.222 107.962 180.86 111.859C187.054 96.4013 190.507 80.3561 191.731 65.8369C176.923 62.4618 165.274 50.1874 162.241 34.6898H114.49C111.457 50.1871 99.8076 62.4615 85 65.8369C86.1785 79.8136 89.4363 95.2016 95.1979 110.119L95.6069 109.507Z" fill="#ECF0F1"/>
</g>
<g filter="url(#filter5_d)">
<path d="M135.693 138.911C127.229 143.141 120.115 144.432 114.343 144.221C121.037 152.703 128.969 159.419 138.365 165.638C151.145 157.179 161.26 147.04 169.143 134.753C160.023 132.818 148.16 132.676 135.693 138.911Z" fill="#ECF0F1"/>
</g>
<g filter="url(#filter6_d)">
<path d="M93.3489 136.243C87.1328 130.027 86.2964 120.302 91.0399 112.971L93.3489 109.508C93.437 109.615 106.711 125.542 133.435 112.18C160.159 98.8181 184.123 114.743 184.211 114.853C190.36 121.659 191.306 131.577 186.517 138.122L184.211 141.585C184.123 141.476 160.159 125.55 133.435 138.913C106.711 152.275 93.437 136.352 93.3489 136.243Z" fill="#EB002B"/>
</g>
<g filter="url(#filter7_d)">
<path d="M166.578 73.9266C166.291 73.303 165.771 72.7943 165.158 72.3563C164.173 71.6453 163.037 71.1208 161.838 70.6811C158.717 69.543 155.409 68.906 152.018 68.5396C149.977 68.3216 147.915 68.1841 145.859 68.0767C142.999 67.936 140.14 67.9976 137.29 68.19C135.011 68.3458 132.745 68.5955 130.511 68.9818C127.948 69.4298 125.438 70.0093 123.099 70.9776C121.912 71.4688 120.807 72.0475 119.927 72.8543C118.563 74.1032 118.531 75.5778 119.918 76.8134C120.461 77.2946 121.101 77.7251 121.769 78.0864C123.52 79.0431 125.495 79.6209 127.517 80.103C129.622 80.6109 131.777 80.9523 133.954 81.2037C134.787 81.2979 135.625 81.3678 136.485 81.4494C137.866 77.6843 139.239 73.945 140.613 70.2049C140.628 70.2143 140.647 70.2167 140.666 70.2214C140.89 74.0273 141.113 77.8298 141.34 81.6574C141.64 81.6692 141.901 81.6949 142.162 81.688C143.851 81.6531 145.539 81.6314 147.222 81.5616C149.812 81.4601 152.384 81.1794 154.922 80.7572C157.429 80.3359 159.882 79.7814 162.193 78.883C163.56 78.346 164.855 77.7257 165.834 76.7699C166.7 75.9264 167.069 74.9914 166.578 73.9273" fill="#EB0029"/>
</g>
<g filter="url(#filter8_d)">
<path d="M135.576 81.9576C132.591 82.0202 129.626 82.2499 126.696 82.7211C123.864 83.1807 121.108 83.821 118.52 84.8684C116.877 85.537 115.35 86.3338 114.201 87.5053C113.157 88.5736 112.697 89.7559 113.212 91.0914C113.642 92.2029 114.569 93.0364 115.681 93.7524C117.556 94.9572 119.721 95.7291 121.985 96.3477C124.325 96.9871 126.739 97.3984 129.186 97.6915C129.569 97.7357 129.95 97.7689 130.333 97.8022C132.276 92.5093 134.205 87.2439 136.15 81.9576C135.929 81.9576 135.755 81.9552 135.576 81.9576" fill="#EB0029"/>
</g>
<g filter="url(#filter9_d)">
<path d="M157.191 85.7047C155.069 84.5815 152.72 83.8696 150.287 83.3126C147.958 82.7822 145.578 82.4417 143.168 82.216C142.587 82.1603 142.005 82.1278 141.388 82.0846C141.7 87.3734 142.005 92.6205 142.314 97.8893C142.498 97.8893 142.643 97.9034 142.786 97.8822C144.264 97.7089 145.748 97.5599 147.213 97.3401C149.876 96.9347 152.463 96.3202 154.912 95.3868C156.679 94.7099 158.321 93.8981 159.597 92.68C161.146 91.2038 161.326 89.4861 160.076 87.9183C159.346 86.9941 158.321 86.3022 157.191 85.7044" fill="#EB0029"/>
</g>
<g filter="url(#filter10_d)">
<path d="M247.49 165.752H269.996" stroke="#EB002B" stroke-width="0.75" stroke-miterlimit="10"/>
</g>
<g filter="url(#filter11_d)">
<path d="M248.848 86.1791H270.384" stroke="#EB002B" stroke-width="0.75" stroke-miterlimit="10"/>
</g>
<g filter="url(#filter12_d)">
<path d="M182.688 1H192.001" stroke="#EB002B" stroke-width="0.75" stroke-miterlimit="10"/>
</g>
<g filter="url(#filter13_d)">
<path d="M4 50.3615H20.8794" stroke="#EB002B" stroke-width="0.75" stroke-miterlimit="10"/>
</g>
<g filter="url(#filter14_d)">
<path d="M16.6108 127.611H35.8184" stroke="#EB002B" stroke-width="0.75" stroke-miterlimit="10"/>
</g>
<g filter="url(#filter15_d)">
<path d="M32.0001 60.2983C32.0001 56.8234 34.921 54 38.5159 54C42.1108 54 45.0317 56.8234 45.0317 60.2983C45.0317 63.7732 42.1108 66.5966 38.5159 66.5966C34.921 66.5966 32.0001 63.7732 32.0001 60.2983Z" fill="#EB002B"/>
</g>
<g filter="url(#filter16_d)">
<path d="M91.8925 164.184C91.8925 160.927 94.5887 158.321 97.9589 158.321C101.329 158.321 104.025 160.927 104.025 164.184C104.025 167.442 101.329 170.048 97.9589 170.048C94.364 170.048 91.8925 167.442 91.8925 164.184Z" fill="#EB002B"/>
</g>
<g filter="url(#filter17_d)">
<path d="M211.649 41.4769C211.649 38.002 214.569 35.1786 218.164 35.1786C221.759 35.1786 224.68 38.002 224.68 41.4769C224.68 44.9518 221.759 47.7751 218.164 47.7751C214.569 47.7751 211.649 44.9518 211.649 41.4769Z" fill="#EB002B"/>
</g>
<g filter="url(#filter18_d)">
<path d="M254.113 113.798C254.113 111.192 256.36 109.02 259.056 109.02C261.753 109.02 264 111.192 264 113.798C264 116.404 261.753 118.576 259.056 118.576C256.136 118.359 254.113 116.404 254.113 113.798Z" fill="#EB002B"/>
</g>
<defs>
<filter id="filter0_d" x="92.8691" y="133.573" width="90.364" height="53.427" filterUnits="userSpaceOnUse" color-interpolation-filters="sRGB">
<feFlood flood-opacity="0" result="BackgroundImageFix"/>
<feColorMatrix in="SourceAlpha" type="matrix" values="0 0 0 0 0 0 0 0 0 0 0 0 0 0 0 0 0 0 127 0"/>
<feOffset dy="4"/>
<feGaussianBlur stdDeviation="2"/>
<feColorMatrix type="matrix" values="0 0 0 0 0 0 0 0 0 0 0 0 0 0 0 0 0 0 0.25 0"/>
<feBlend mode="normal" in2="BackgroundImageFix" result="effect1_dropShadow"/>
<feBlend mode="normal" in="SourceGraphic" in2="effect1_dropShadow" result="shape"/>
</filter>
<filter id="filter1_d" x="70" y="24" width="136.276" height="101.516" filterUnits="userSpaceOnUse" color-interpolation-filters="sRGB">
<feFlood flood-opacity="0" result="BackgroundImageFix"/>
<feColorMatrix in="SourceAlpha" type="matrix" values="0 0 0 0 0 0 0 0 0 0 0 0 0 0 0 0 0 0 127 0"/>
<feOffset dy="4"/>
<feGaussianBlur stdDeviation="2"/>
<feColorMatrix type="matrix" values="0 0 0 0 0 0 0 0 0 0 0 0 0 0 0 0 0 0 0.25 0"/>
<feBlend mode="normal" in2="BackgroundImageFix" result="effect1_dropShadow"/>
<feBlend mode="normal" in="SourceGraphic" in2="effect1_dropShadow" result="shape"/>
</filter>
<filter id="filter2_d" x="182.604" y="114.429" width="37.3964" height="43.0832" filterUnits="userSpaceOnUse" color-interpolation-filters="sRGB">
<feFlood flood-opacity="0" result="BackgroundImageFix"/>
<feColorMatrix in="SourceAlpha" type="matrix" values="0 0 0 0 0 0 0 0 0 0 0 0 0 0 0 0 0 0 127 0"/>
<feOffset dy="4"/>
<feGaussianBlur stdDeviation="2"/>
<feColorMatrix type="matrix" values="0 0 0 0 0 0 0 0 0 0 0 0 0 0 0 0 0 0 0.25 0"/>
<feBlend mode="normal" in2="BackgroundImageFix" result="effect1_dropShadow"/>
<feBlend mode="normal" in="SourceGraphic" in2="effect1_dropShadow" result="shape"/>
</filter>
<filter id="filter3_d" x="53" y="114.863" width="50.7585" height="37.36" filterUnits="userSpaceOnUse" color-interpolation-filters="sRGB">
<feFlood flood-opacity="0" result="BackgroundImageFix"/>
<feColorMatrix in="SourceAlpha" type="matrix" values="0 0 0 0 0 0 0 0 0 0 0 0 0 0 0 0 0 0 127 0"/>
<feOffset dy="4"/>
<feGaussianBlur stdDeviation="2"/>
<feColorMatrix type="matrix" values="0 0 0 0 0 0 0 0 0 0 0 0 0 0 0 0 0 0 0.25 0"/>
<feBlend mode="normal" in2="BackgroundImageFix" result="effect1_dropShadow"/>
<feBlend mode="normal" in="SourceGraphic" in2="effect1_dropShadow" result="shape"/>
</filter>
<filter id="filter4_d" x="81" y="34.6898" width="114.731" height="90.8266" filterUnits="userSpaceOnUse" color-interpolation-filters="sRGB">
<feFlood flood-opacity="0" result="BackgroundImageFix"/>
<feColorMatrix in="SourceAlpha" type="matrix" values="0 0 0 0 0 0 0 0 0 0 0 0 0 0 0 0 0 0 127 0"/>
<feOffset dy="4"/>
<feGaussianBlur stdDeviation="2"/>
<feColorMatrix type="matrix" values="0 0 0 0 0 0 0 0 0 0 0 0 0 0 0 0 0 0 0.25 0"/>
<feBlend mode="normal" in2="BackgroundImageFix" result="effect1_dropShadow"/>
<feBlend mode="normal" in="SourceGraphic" in2="effect1_dropShadow" result="shape"/>
</filter>
<filter id="filter5_d" x="110.343" y="133.573" width="62.8004" height="40.0641" filterUnits="userSpaceOnUse" color-interpolation-filters="sRGB">
<feFlood flood-opacity="0" result="BackgroundImageFix"/>
<feColorMatrix in="SourceAlpha" type="matrix" values="0 0 0 0 0 0 0 0 0 0 0 0 0 0 0 0 0 0 127 0"/>
<feOffset dy="4"/>
<feGaussianBlur stdDeviation="2"/>
<feColorMatrix type="matrix" values="0 0 0 0 0 0 0 0 0 0 0 0 0 0 0 0 0 0 0.25 0"/>
<feBlend mode="normal" in2="BackgroundImageFix" result="effect1_dropShadow"/>
<feBlend mode="normal" in="SourceGraphic" in2="effect1_dropShadow" result="shape"/>
</filter>
<filter id="filter6_d" x="84" y="106.843" width="109.556" height="45.4074" filterUnits="userSpaceOnUse" color-interpolation-filters="sRGB">
<feFlood flood-opacity="0" result="BackgroundImageFix"/>
<feColorMatrix in="SourceAlpha" type="matrix" values="0 0 0 0 0 0 0 0 0 0 0 0 0 0 0 0 0 0 127 0"/>
<feOffset dy="4"/>
<feGaussianBlur stdDeviation="2"/>
<feColorMatrix type="matrix" values="0 0 0 0 0 0 0 0 0 0 0 0 0 0 0 0 0 0 0.25 0"/>
<feBlend mode="normal" in2="BackgroundImageFix" result="effect1_dropShadow"/>
<feBlend mode="normal" in="SourceGraphic" in2="effect1_dropShadow" result="shape"/>
</filter>
<filter id="filter7_d" x="114.891" y="68" width="55.9071" height="21.6892" filterUnits="userSpaceOnUse" color-interpolation-filters="sRGB">
<feFlood flood-opacity="0" result="BackgroundImageFix"/>
<feColorMatrix in="SourceAlpha" type="matrix" values="0 0 0 0 0 0 0 0 0 0 0 0 0 0 0 0 0 0 127 0"/>
<feOffset dy="4"/>
<feGaussianBlur stdDeviation="2"/>
<feColorMatrix type="matrix" values="0 0 0 0 0 0 0 0 0 0 0 0 0 0 0 0 0 0 0.25 0"/>
<feBlend mode="normal" in2="BackgroundImageFix" result="effect1_dropShadow"/>
<feBlend mode="normal" in="SourceGraphic" in2="effect1_dropShadow" result="shape"/>
</filter>
<filter id="filter8_d" x="109" y="81.9565" width="31.15" height="23.8457" filterUnits="userSpaceOnUse" color-interpolation-filters="sRGB">
<feFlood flood-opacity="0" result="BackgroundImageFix"/>
<feColorMatrix in="SourceAlpha" type="matrix" values="0 0 0 0 0 0 0 0 0 0 0 0 0 0 0 0 0 0 127 0"/>
<feOffset dy="4"/>
<feGaussianBlur stdDeviation="2"/>
<feColorMatrix type="matrix" values="0 0 0 0 0 0 0 0 0 0 0 0 0 0 0 0 0 0 0.25 0"/>
<feBlend mode="normal" in2="BackgroundImageFix" result="effect1_dropShadow"/>
<feBlend mode="normal" in="SourceGraphic" in2="effect1_dropShadow" result="shape"/>
</filter>
<filter id="filter9_d" x="137.388" y="82.0846" width="27.5132" height="23.8093" filterUnits="userSpaceOnUse" color-interpolation-filters="sRGB">
<feFlood flood-opacity="0" result="BackgroundImageFix"/>
<feColorMatrix in="SourceAlpha" type="matrix" values="0 0 0 0 0 0 0 0 0 0 0 0 0 0 0 0 0 0 127 0"/>
<feOffset dy="4"/>
<feGaussianBlur stdDeviation="2"/>
<feColorMatrix type="matrix" values="0 0 0 0 0 0 0 0 0 0 0 0 0 0 0 0 0 0 0.25 0"/>
<feBlend mode="normal" in2="BackgroundImageFix" result="effect1_dropShadow"/>
<feBlend mode="normal" in="SourceGraphic" in2="effect1_dropShadow" result="shape"/>
</filter>
<filter id="filter10_d" x="243.49" y="165.377" width="30.5058" height="8.75" filterUnits="userSpaceOnUse" color-interpolation-filters="sRGB">
<feFlood flood-opacity="0" result="BackgroundImageFix"/>
<feColorMatrix in="SourceAlpha" type="matrix" values="0 0 0 0 0 0 0 0 0 0 0 0 0 0 0 0 0 0 127 0"/>
<feOffset dy="4"/>
<feGaussianBlur stdDeviation="2"/>
<feColorMatrix type="matrix" values="0 0 0 0 0 0 0 0 0 0 0 0 0 0 0 0 0 0 0.25 0"/>
<feBlend mode="normal" in2="BackgroundImageFix" result="effect1_dropShadow"/>
<feBlend mode="normal" in="SourceGraphic" in2="effect1_dropShadow" result="shape"/>
</filter>
<filter id="filter11_d" x="244.848" y="85.8041" width="29.5357" height="8.75" filterUnits="userSpaceOnUse" color-interpolation-filters="sRGB">
<feFlood flood-opacity="0" result="BackgroundImageFix"/>
<feColorMatrix in="SourceAlpha" type="matrix" values="0 0 0 0 0 0 0 0 0 0 0 0 0 0 0 0 0 0 127 0"/>
<feOffset dy="4"/>
<feGaussianBlur stdDeviation="2"/>
<feColorMatrix type="matrix" values="0 0 0 0 0 0 0 0 0 0 0 0 0 0 0 0 0 0 0.25 0"/>
<feBlend mode="normal" in2="BackgroundImageFix" result="effect1_dropShadow"/>
<feBlend mode="normal" in="SourceGraphic" in2="effect1_dropShadow" result="shape"/>
</filter>
<filter id="filter12_d" x="178.688" y="0.625" width="17.3128" height="8.75" filterUnits="userSpaceOnUse" color-interpolation-filters="sRGB">
<feFlood flood-opacity="0" result="BackgroundImageFix"/>
<feColorMatrix in="SourceAlpha" type="matrix" values="0 0 0 0 0 0 0 0 0 0 0 0 0 0 0 0 0 0 127 0"/>
<feOffset dy="4"/>
<feGaussianBlur stdDeviation="2"/>
<feColorMatrix type="matrix" values="0 0 0 0 0 0 0 0 0 0 0 0 0 0 0 0 0 0 0.25 0"/>
<feBlend mode="normal" in2="BackgroundImageFix" result="effect1_dropShadow"/>
<feBlend mode="normal" in="SourceGraphic" in2="effect1_dropShadow" result="shape"/>
</filter>
<filter id="filter13_d" x="0" y="49.9865" width="24.8794" height="8.75" filterUnits="userSpaceOnUse" color-interpolation-filters="sRGB">
<feFlood flood-opacity="0" result="BackgroundImageFix"/>
<feColorMatrix in="SourceAlpha" type="matrix" values="0 0 0 0 0 0 0 0 0 0 0 0 0 0 0 0 0 0 127 0"/>
<feOffset dy="4"/>
<feGaussianBlur stdDeviation="2"/>
<feColorMatrix type="matrix" values="0 0 0 0 0 0 0 0 0 0 0 0 0 0 0 0 0 0 0.25 0"/>
<feBlend mode="normal" in2="BackgroundImageFix" result="effect1_dropShadow"/>
<feBlend mode="normal" in="SourceGraphic" in2="effect1_dropShadow" result="shape"/>
</filter>
<filter id="filter14_d" x="12.6108" y="127.236" width="27.2076" height="8.75" filterUnits="userSpaceOnUse" color-interpolation-filters="sRGB">
<feFlood flood-opacity="0" result="BackgroundImageFix"/>
<feColorMatrix in="SourceAlpha" type="matrix" values="0 0 0 0 0 0 0 0 0 0 0 0 0 0 0 0 0 0 127 0"/>
<feOffset dy="4"/>
<feGaussianBlur stdDeviation="2"/>
<feColorMatrix type="matrix" values="0 0 0 0 0 0 0 0 0 0 0 0 0 0 0 0 0 0 0.25 0"/>
<feBlend mode="normal" in2="BackgroundImageFix" result="effect1_dropShadow"/>
<feBlend mode="normal" in="SourceGraphic" in2="effect1_dropShadow" result="shape"/>
</filter>
<filter id="filter15_d" x="28" y="54" width="21.0317" height="20.5965" filterUnits="userSpaceOnUse" color-interpolation-filters="sRGB">
<feFlood flood-opacity="0" result="BackgroundImageFix"/>
<feColorMatrix in="SourceAlpha" type="matrix" values="0 0 0 0 0 0 0 0 0 0 0 0 0 0 0 0 0 0 127 0"/>
<feOffset dy="4"/>
<feGaussianBlur stdDeviation="2"/>
<feColorMatrix type="matrix" values="0 0 0 0 0 0 0 0 0 0 0 0 0 0 0 0 0 0 0.25 0"/>
<feBlend mode="normal" in2="BackgroundImageFix" result="effect1_dropShadow"/>
<feBlend mode="normal" in="SourceGraphic" in2="effect1_dropShadow" result="shape"/>
</filter>
<filter id="filter16_d" x="87.8926" y="158.321" width="20.1329" height="19.7278" filterUnits="userSpaceOnUse" color-interpolation-filters="sRGB">
<feFlood flood-opacity="0" result="BackgroundImageFix"/>
<feColorMatrix in="SourceAlpha" type="matrix" values="0 0 0 0 0 0 0 0 0 0 0 0 0 0 0 0 0 0 127 0"/>
<feOffset dy="4"/>
<feGaussianBlur stdDeviation="2"/>
<feColorMatrix type="matrix" values="0 0 0 0 0 0 0 0 0 0 0 0 0 0 0 0 0 0 0.25 0"/>
<feBlend mode="normal" in2="BackgroundImageFix" result="effect1_dropShadow"/>
<feBlend mode="normal" in="SourceGraphic" in2="effect1_dropShadow" result="shape"/>
</filter>
<filter id="filter17_d" x="207.648" y="35.1786" width="21.0316" height="20.5965" filterUnits="userSpaceOnUse" color-interpolation-filters="sRGB">
<feFlood flood-opacity="0" result="BackgroundImageFix"/>
<feColorMatrix in="SourceAlpha" type="matrix" values="0 0 0 0 0 0 0 0 0 0 0 0 0 0 0 0 0 0 127 0"/>
<feOffset dy="4"/>
<feGaussianBlur stdDeviation="2"/>
<feColorMatrix type="matrix" values="0 0 0 0 0 0 0 0 0 0 0 0 0 0 0 0 0 0 0.25 0"/>
<feBlend mode="normal" in2="BackgroundImageFix" result="effect1_dropShadow"/>
<feBlend mode="normal" in="SourceGraphic" in2="effect1_dropShadow" result="shape"/>
</filter>
<filter id="filter18_d" x="250.113" y="109.02" width="17.8861" height="17.556" filterUnits="userSpaceOnUse" color-interpolation-filters="sRGB">
<feFlood flood-opacity="0" result="BackgroundImageFix"/>
<feColorMatrix in="SourceAlpha" type="matrix" values="0 0 0 0 0 0 0 0 0 0 0 0 0 0 0 0 0 0 127 0"/>
<feOffset dy="4"/>
<feGaussianBlur stdDeviation="2"/>
<feColorMatrix type="matrix" values="0 0 0 0 0 0 0 0 0 0 0 0 0 0 0 0 0 0 0.25 0"/>
<feBlend mode="normal" in2="BackgroundImageFix" result="effect1_dropShadow"/>
<feBlend mode="normal" in="SourceGraphic" in2="effect1_dropShadow" result="shape"/>
</filter>
</defs>
</svg>
