<svg width="227" height="32" viewBox="0 0 227 32" fill="none" xmlns="http://www.w3.org/2000/svg">
<g filter="url(#filter0_d)">
<path d="M45.3428 4.57321C45.1212 4.092 44.7203 3.69943 44.2468 3.36149C43.4867 2.81282 42.6104 2.40809 41.6852 2.06886C39.2766 1.19061 36.724 0.69909 34.1079 0.416406C32.5325 0.248128 30.9418 0.142059 29.3549 0.0591769C27.1486 -0.0493658 24.9424 -0.00182529 22.7432 0.146601C20.9847 0.2668 19.2359 0.45949 17.5121 0.7576C15.5346 1.10326 13.5975 1.55042 11.7928 2.29762C10.8767 2.67668 10.0241 3.12318 9.34502 3.74573C8.29265 4.70945 8.26759 5.84727 9.33792 6.8007C9.75745 7.17206 10.2509 7.5042 10.7668 7.78304C12.1173 8.52124 13.6418 8.96712 15.2018 9.33912C16.8259 9.73102 18.4887 9.99444 20.1687 10.1885C20.8119 10.2611 21.4582 10.3151 22.1219 10.378C23.1877 7.47275 24.2472 4.58737 25.3072 1.70137C25.3187 1.70866 25.3336 1.71049 25.3477 1.71413C25.5212 4.65086 25.6927 7.58504 25.8681 10.5385C26.0994 10.5476 26.3011 10.5675 26.5022 10.5622C27.8058 10.5352 29.1081 10.5185 30.4065 10.4646C32.4053 10.3863 34.3899 10.1697 36.3481 9.84394C38.2826 9.51884 40.176 9.09094 41.9589 8.39771C43.0138 7.98332 44.0135 7.50469 44.7684 6.76713C45.4366 6.11631 45.7218 5.39479 45.3428 4.57371" fill="#EB0029"/>
<path d="M21.4207 10.7701C19.1168 10.8184 16.8296 10.9956 14.5681 11.3593C12.383 11.7139 10.2564 12.208 8.2596 13.0162C6.99136 13.5321 5.81371 14.147 4.9271 15.0509C4.12143 15.8752 3.76615 16.7875 4.1632 17.818C4.49536 18.6758 5.21107 19.3189 6.06877 19.8714C7.51562 20.8011 9.18606 21.3966 10.9329 21.874C12.7389 22.3674 14.6015 22.6848 16.4897 22.911C16.7852 22.945 17.0788 22.9707 17.375 22.9963C18.8739 18.9121 20.3625 14.8492 21.8633 10.7701C21.6931 10.7701 21.5582 10.7683 21.4207 10.7701" fill="#EB0029"/>
<path d="M38.0992 13.6616C36.4622 12.7948 34.6491 12.2456 32.7724 11.8157C30.9748 11.4065 29.1386 11.1437 27.2786 10.9696C26.8302 10.9266 26.3817 10.9015 25.905 10.8682C26.146 14.9492 26.3817 18.998 26.6195 23.0636C26.7614 23.0636 26.8739 23.0745 26.9844 23.0581C28.1248 22.9244 29.2697 22.8095 30.3998 22.6399C32.455 22.327 34.4512 21.8528 36.3407 21.1326C37.7041 20.6103 38.9717 19.9839 39.9559 19.0439C41.1516 17.9048 41.2903 16.5794 40.3253 15.3697C39.7625 14.6565 38.9717 14.1226 38.0992 13.6613" fill="#EB0029"/>
<path d="M66.1752 8.83619C66.1752 9.07696 66.1752 9.80455 64.4404 9.80455H55.0397V6.36608H64.4404C66.1752 6.36608 66.1752 7.09455 66.1752 7.33443V8.83619ZM55.0397 12.7408H64.4404C65.2644 12.7408 65.6418 12.845 65.8095 12.9299C66.1226 13.1015 66.2805 13.4564 66.2805 13.985V15.1815C66.2805 15.7091 66.1226 16.065 65.8154 16.2328C65.5658 16.3597 65.1035 16.4249 64.4404 16.4249H55.0397V12.7408ZM68.0934 11.2917C69.6517 10.9055 70.4387 10.0103 70.4387 8.62167V6.69082C70.4387 4.54737 69.0101 3.46008 66.1899 3.46008H50.5315V19.606H65.0694C68.7243 19.606 70.5791 18.5089 70.5791 16.345V14.3215C70.5791 12.732 69.7434 11.7159 68.0934 11.2917Z" fill="#EB0029"/>
<path d="M88.9743 12.9612H81.6985L85.4003 7.04096L88.9743 12.9612ZM87.6831 3.46106H83.4041L72.9707 19.607H77.6086L79.7072 16.1432H90.9266L93.0973 19.607H98.2599L87.7378 3.54398L87.6831 3.46106Z" fill="#EB0029"/>
<path d="M118.576 11.9321C118.576 12.247 118.622 13.0096 118.716 14.2003C118.27 13.7975 117.695 13.3334 116.997 12.8165L104.293 3.49874L104.24 3.46061H101.112V19.6066H105.27V10.8895C105.27 10.3434 105.229 9.66076 105.148 8.85625C105.497 9.17903 105.88 9.49203 106.29 9.78947L119.553 19.5675L119.607 19.6065H122.734V3.46057H118.576L118.576 11.9321Z" fill="#EB0029"/>
<path d="M146.079 16.3017H132.598V6.61138H146.079V16.3017ZM145.989 3.46057H132.688C130.895 3.46057 129.698 3.72596 129.024 4.27096C128.349 4.81998 128.019 5.83121 128.019 7.36516V15.7019C128.019 17.2359 128.349 18.2481 129.024 18.7962C129.697 19.3403 130.895 19.6065 132.688 19.6065H145.989C147.781 19.6065 148.978 19.3403 149.651 18.7962C150.328 18.2481 150.657 17.2359 150.657 15.7019V7.36516C150.657 5.83121 150.328 4.81998 149.651 4.27096C148.978 3.72585 147.781 3.46057 145.989 3.46057Z" fill="#EB0029"/>
<path d="M160.579 6.48948H169.838C170.608 6.48948 170.957 6.57931 171.107 6.65035C171.401 6.80432 171.544 7.1116 171.544 7.58846V9.50176C171.544 9.9796 171.401 10.2848 171.114 10.437C170.957 10.5122 170.609 10.6009 169.838 10.6009H160.579V6.48948ZM171.733 13.6297C174.556 13.6297 175.986 12.5433 175.986 10.399V6.69135C175.986 4.54696 174.556 3.46057 171.733 3.46057H156.07V19.6065H160.579V13.6297H164.305L171.532 19.5607L171.588 19.6066H178.216L169.878 13.6298L171.733 13.6297Z" fill="#EB0029"/>
<path d="M179.469 6.61181H187.764V19.606H192.343V6.61181H200.671V3.46008H179.469V6.61181Z" fill="#EB0029"/>
<path d="M208.873 16.3019V12.7103H217.437V9.68241H208.873V6.48972H222.825V3.46082H204.295V19.6058H223V16.3019H208.873Z" fill="#EB0029"/>
</g>
<defs>
<filter id="filter0_d" x="0" y="0" width="227" height="31.0672" filterUnits="userSpaceOnUse" color-interpolation-filters="sRGB">
<feFlood flood-opacity="0" result="BackgroundImageFix"/>
<feColorMatrix in="SourceAlpha" type="matrix" values="0 0 0 0 0 0 0 0 0 0 0 0 0 0 0 0 0 0 127 0"/>
<feOffset dy="4"/>
<feGaussianBlur stdDeviation="2"/>
<feColorMatrix type="matrix" values="0 0 0 0 0 0 0 0 0 0 0 0 0 0 0 0 0 0 0.25 0"/>
<feBlend mode="normal" in2="BackgroundImageFix" result="effect1_dropShadow"/>
<feBlend mode="normal" in="SourceGraphic" in2="effect1_dropShadow" result="shape"/>
</filter>
</defs>
</svg>
