<svg width="75" height="75" viewBox="0 0 75 75" fill="none" xmlns="http://www.w3.org/2000/svg">
<path d="M21.981 71L22.7125 68.9403H25.6529L26.3844 71H27.3077L24.6372 63.7273H23.7281L21.0577 71H21.981ZM22.9895 68.1591L24.1543 64.8778H24.2111L25.3759 68.1591H22.9895ZM27.0733 63.7273L29.7011 68.0028V71H30.5818V68.0028L33.2097 63.7273H32.2012L30.1841 67.1222H30.0989L28.0818 63.7273H27.0733ZM39.1214 63.7273V68.4716C39.1214 69.5369 38.3899 70.304 37.1754 70.304C35.9609 70.304 35.2294 69.5369 35.2294 68.4716V63.7273H34.3487V68.5426C34.3487 70.0341 35.4638 71.1278 37.1754 71.1278C38.8871 71.1278 40.0021 70.0341 40.0021 68.5426V63.7273H39.1214ZM44.0051 71C46.221 71 47.471 69.6222 47.471 67.3494C47.471 65.0909 46.221 63.7273 44.1046 63.7273H41.7608V71H44.0051ZM42.6415 70.2188V64.5085H44.0477C45.7523 64.5085 46.6188 65.5881 46.6188 67.3494C46.6188 69.125 45.7523 70.2188 43.9483 70.2188H42.6415ZM48.9048 71L49.6363 68.9403H52.5767L53.3082 71H54.2315L51.5611 63.7273H50.652L47.9815 71H48.9048ZM49.9133 68.1591L51.0781 64.8778H51.1349L52.2997 68.1591H49.9133Z" fill="#F8F8F8"/>
<circle cx="37.5" cy="30.5" r="25" fill="#F8F8F8"/>
<path d="M41.3375 29.5625L40.2125 30.7125C39.3125 31.6125 38.75 32.375 38.75 34.25H36.25V33.625C36.25 32.2375 36.8125 30.9875 37.7125 30.0875L39.2625 28.5125C39.725 28.0625 40 27.4375 40 26.75C40 25.3625 38.875 24.25 37.5 24.25C36.837 24.25 36.2011 24.5134 35.7322 24.9822C35.2634 25.4511 35 26.087 35 26.75H32.5C32.5 25.4239 33.0268 24.1521 33.9645 23.2145C34.9021 22.2768 36.1739 21.75 37.5 21.75C38.8261 21.75 40.0979 22.2768 41.0355 23.2145C41.9732 24.1521 42.5 25.4239 42.5 26.75C42.5 27.85 42.05 28.8375 41.3375 29.5625ZM38.75 39.25H36.25V36.75H38.75V39.25ZM37.5 18C35.8585 18 34.233 18.3233 32.7165 18.9515C31.1999 19.5797 29.8219 20.5004 28.6612 21.6612C26.317 24.0054 25 27.1848 25 30.5C25 33.8152 26.317 36.9946 28.6612 39.3388C29.8219 40.4996 31.1999 41.4203 32.7165 42.0485C34.233 42.6767 35.8585 43 37.5 43C40.8152 43 43.9946 41.683 46.3388 39.3388C48.683 36.9946 50 33.8152 50 30.5C50 23.5875 44.375 18 37.5 18Z" fill="#850018"/>
</svg>
