<svg width="75" height="75" viewBox="0 0 75 75" fill="none" xmlns="http://www.w3.org/2000/svg">
<circle cx="37.5" cy="30.5" r="25" fill="#F8F8F8"/>
<path d="M37.277 23.9857L28.8753 32.4604V41.607C28.8753 41.8439 28.9522 42.071 29.0889 42.2385C29.2256 42.4059 29.4111 42.5 29.6045 42.5L34.711 42.4838C34.9037 42.4826 35.0882 42.388 35.2242 42.2207C35.3601 42.0534 35.4364 41.8269 35.4364 41.5909V36.2493C35.4364 36.0125 35.5132 35.7853 35.65 35.6179C35.7867 35.4504 35.9722 35.3563 36.1655 35.3563H39.082C39.2754 35.3563 39.4608 35.4504 39.5975 35.6179C39.7343 35.7853 39.8111 36.0125 39.8111 36.2493V41.587C39.8108 41.7045 39.8294 41.8209 39.8659 41.9295C39.9024 42.0382 39.9561 42.137 40.0238 42.2202C40.0916 42.3034 40.172 42.3694 40.2607 42.4145C40.3493 42.4595 40.4443 42.4827 40.5402 42.4827L45.6449 42.5C45.8383 42.5 46.0237 42.4059 46.1604 42.2385C46.2972 42.071 46.374 41.8439 46.374 41.607V32.4542L37.9742 23.9857C37.8754 23.8882 37.7524 23.835 37.6256 23.835C37.4987 23.835 37.3757 23.8882 37.277 23.9857ZM50.5482 29.7458L46.7386 25.8999V18.1697C46.7386 17.9921 46.6809 17.8218 46.5784 17.6962C46.4758 17.5706 46.3367 17.5 46.1917 17.5H43.6398C43.4948 17.5 43.3557 17.5706 43.2532 17.6962C43.1506 17.8218 43.093 17.9921 43.093 18.1697V22.2221L39.0132 18.1111C38.6216 17.7165 38.1303 17.5008 37.6233 17.5008C37.1163 17.5008 36.625 17.7165 36.2334 18.1111L24.6985 29.7458C24.6431 29.8018 24.5973 29.8707 24.5636 29.9484C24.53 30.0262 24.5092 30.1113 24.5024 30.1989C24.4957 30.2865 24.5031 30.3748 24.5242 30.4589C24.5453 30.543 24.5797 30.6212 24.6255 30.689L25.7876 32.4191C25.8332 32.4871 25.8894 32.5434 25.9529 32.5848C26.0164 32.6262 26.0859 32.6519 26.1574 32.6603C26.229 32.6688 26.3013 32.6598 26.37 32.6341C26.4388 32.6083 26.5027 32.5661 26.5581 32.51L37.277 21.6975C37.3757 21.6 37.4987 21.5468 37.6256 21.5468C37.7524 21.5468 37.8754 21.6 37.9742 21.6975L48.6935 32.51C48.7488 32.5661 48.8127 32.6083 48.8813 32.6342C48.95 32.6601 49.0221 32.6691 49.0936 32.6608C49.1652 32.6525 49.2347 32.6271 49.2981 32.5859C49.3616 32.5447 49.4178 32.4886 49.4636 32.4207L50.6256 30.6906C50.6714 30.6225 50.7057 30.5439 50.7265 30.4594C50.7474 30.375 50.7545 30.2863 50.7473 30.1985C50.7401 30.1107 50.7188 30.0255 50.6846 29.9478C50.6504 29.8701 50.6041 29.8015 50.5482 29.7458Z" fill="#850018"/>
<path d="M25.5807 63.7273H24.7V71H25.5807V63.7273ZM33.1135 63.7273H32.2471V69.4517H32.176L28.1988 63.7273H27.3465V71H28.2272V65.2898H28.2982L32.2613 71H33.1135V63.7273ZM35.7565 63.7273H34.8758V71H35.7565V63.7273ZM43.3746 66C43.1047 64.5085 41.9115 63.6278 40.4484 63.6278C38.5876 63.6278 37.2382 65.0625 37.2382 67.3636C37.2382 69.6648 38.5876 71.0994 40.4484 71.0994C41.9115 71.0994 43.1047 70.2188 43.3746 68.7273H42.4939C42.2808 69.7358 41.4143 70.2756 40.4484 70.2756C39.1274 70.2756 38.0905 69.2528 38.0905 67.3636C38.0905 65.4744 39.1274 64.4517 40.4484 64.4517C41.4143 64.4517 42.2808 64.9915 42.4939 66H43.3746ZM45.6784 63.7273H44.7977V71H45.6784V63.7273ZM53.5805 67.3636C53.5805 65.0625 52.2311 63.6278 50.3703 63.6278C48.5095 63.6278 47.1601 65.0625 47.1601 67.3636C47.1601 69.6648 48.5095 71.0994 50.3703 71.0994C52.2311 71.0994 53.5805 69.6648 53.5805 67.3636ZM52.7282 67.3636C52.7282 69.2528 51.6913 70.2756 50.3703 70.2756C49.0493 70.2756 48.0123 69.2528 48.0123 67.3636C48.0123 65.4744 49.0493 64.4517 50.3703 64.4517C51.6913 64.4517 52.7282 65.4744 52.7282 67.3636Z" fill="#F8F8F8"/>
</svg>
