<svg width="75" height="75" viewBox="0 0 75 75" fill="none" xmlns="http://www.w3.org/2000/svg">
<circle cx="37.5" cy="30.5" r="25" fill="#F8F8F8"/>
<path fill-rule="evenodd" clip-rule="evenodd" d="M45.0109 20.5H32.5031C31.1215 20.5 30.0015 21.62 30.0015 23.0016V26.7539C30.0015 27.2144 30.3749 27.5878 30.8354 27.5878C31.2959 27.5878 31.6692 27.2144 31.6692 26.7539V26.5454C31.6692 26.4303 31.7626 26.337 31.8777 26.337H45.6363C45.7514 26.337 45.8448 26.4303 45.8448 26.5454V30.5063C45.8447 30.816 45.6729 31.1002 45.3986 31.2442C45.1502 31.3893 45.0014 31.6588 45.0109 31.9463C45.0087 32.237 45.1581 32.5079 45.4052 32.6612C45.6523 32.8144 45.9613 32.8279 46.2208 32.6968C47.0181 32.2562 47.5128 31.4171 47.5125 30.5063V23.0016C47.5125 21.62 46.3925 20.5 45.0109 20.5ZM31.8778 23.8353C31.7626 23.8353 31.6693 23.742 31.6693 23.6269V23.0015C31.6693 22.541 32.0426 22.1676 32.5032 22.1676H45.011C45.4715 22.1676 45.8448 22.541 45.8448 23.0015V23.6269C45.8448 23.742 45.7515 23.8353 45.6364 23.8353H31.8778ZM29.1677 28.8385H41.6755C42.5966 28.8385 43.3432 29.5851 43.3432 30.5062V38.8447C43.3432 39.7658 42.5966 40.5124 41.6755 40.5124H29.1677C28.2467 40.5124 27.5 39.7658 27.5 38.8447V30.5062C27.5 29.5851 28.2467 28.8385 29.1677 28.8385ZM32.5031 33.4248C32.5031 33.6551 32.3164 33.8417 32.0862 33.8417H30.4185C30.1882 33.8417 30.0015 33.6551 30.0015 33.4248V31.7571C30.0015 31.5268 30.1882 31.3402 30.4185 31.3402H32.0862C32.3164 31.3402 32.5031 31.5268 32.5031 31.7571V33.4248ZM38.4792 37.5857C38.7845 37.8599 39.1804 38.0114 39.5907 38.011C40.3343 38.0114 40.9883 37.5196 41.1942 36.8051C41.4001 36.0906 41.1081 35.3261 40.4783 34.9308C39.8486 34.5355 39.0332 34.6049 38.4792 35.1009C38.3999 35.1716 38.2801 35.1716 38.2007 35.1009C37.5323 34.5024 36.5102 34.54 35.8875 35.1859C35.2649 35.8319 35.2649 36.8547 35.8875 37.5007C36.5102 38.1466 37.5323 38.1842 38.2007 37.5857C38.2801 37.515 38.3999 37.515 38.4792 37.5857Z" fill="#850018"/>
<path d="M21.657 71H22.5377V68.3438H24.1286C25.8225 68.3438 26.586 67.3139 26.586 66.0284C26.586 64.7429 25.8225 63.7273 24.1144 63.7273H21.657V71ZM22.5377 67.5625V64.5085H24.086C25.2686 64.5085 25.7195 65.1548 25.7195 66.0284C25.7195 66.902 25.2686 67.5625 24.1002 67.5625H22.5377ZM27.5608 71L28.2923 68.9403H31.2327L31.9642 71H32.8875L30.2171 63.7273H29.308L26.6375 71H27.5608ZM28.5693 68.1591L29.7341 64.8778H29.7909L30.9557 68.1591H28.5693ZM38.6501 66H39.5592C39.2893 64.5938 38.1104 63.6278 36.5763 63.6278C34.7119 63.6278 33.3944 65.0625 33.3944 67.3636C33.3944 69.6648 34.7013 71.0994 36.6331 71.0994C38.366 71.0994 39.6018 69.9453 39.6018 68.1449V67.3636H36.8319V68.1449H38.7496C38.7247 69.4517 37.8653 70.2756 36.6331 70.2756C35.2836 70.2756 34.2467 69.2528 34.2467 67.3636C34.2467 65.4744 35.2836 64.4517 36.5763 64.4517C37.6274 64.4517 38.3412 65.0447 38.6501 66ZM47.2465 67.3636C47.2465 65.0625 45.8971 63.6278 44.0363 63.6278C42.1755 63.6278 40.8261 65.0625 40.8261 67.3636C40.8261 69.6648 42.1755 71.0994 44.0363 71.0994C45.8971 71.0994 47.2465 69.6648 47.2465 67.3636ZM46.3943 67.3636C46.3943 69.2528 45.3573 70.2756 44.0363 70.2756C42.7153 70.2756 41.6784 69.2528 41.6784 67.3636C41.6784 65.4744 42.7153 64.4517 44.0363 64.4517C45.3573 64.4517 46.3943 65.4744 46.3943 67.3636ZM52.7046 65.5455H53.5569C53.5178 64.4482 52.5058 63.6278 51.0995 63.6278C49.7075 63.6278 48.6137 64.4375 48.6137 65.6591C48.6137 66.6392 49.324 67.2216 50.4603 67.5483L51.3552 67.804C52.1222 68.017 52.8041 68.2869 52.8041 69.0114C52.8041 69.8068 52.037 70.3324 51.0285 70.3324C50.162 70.3324 49.395 69.9489 49.324 69.125H48.4149C48.5001 70.3182 49.466 71.1278 51.0285 71.1278C52.7046 71.1278 53.6563 70.2045 53.6563 69.0256C53.6563 67.6619 52.3637 67.2216 51.6109 67.0227L50.8722 66.8239C50.3325 66.6818 49.466 66.3977 49.466 65.6165C49.466 64.9205 50.1052 64.4091 51.0711 64.4091C51.9518 64.4091 52.6194 64.8281 52.7046 65.5455Z" fill="#F8F8F8"/>
</svg>
