<svg width="75" height="75" viewBox="0 0 75 75" fill="none" xmlns="http://www.w3.org/2000/svg">
<circle cx="37.5" cy="30.5" r="25" fill="#F8F8F8"/>
<path fill-rule="evenodd" clip-rule="evenodd" d="M44.1486 24.8411C41.8827 22.2744 38.3866 21.1656 35.0556 21.9569C31.8574 22.7679 29.2767 25.1246 28.1795 28.2362C28.1465 28.327 28.1562 28.4278 28.2059 28.5105C28.2556 28.5933 28.34 28.6492 28.4356 28.6627L30.8408 28.9598C31.0823 28.9888 31.2865 29.152 31.368 29.3812C31.4495 29.6103 31.3941 29.8659 31.225 30.0407L26.772 34.6423C26.6514 34.7668 26.4855 34.837 26.3122 34.837C26.2858 34.8389 26.2592 34.8389 26.2328 34.837C26.0324 34.8124 25.8554 34.6946 25.7551 34.5194L22.5841 28.9586C22.4638 28.7476 22.4732 28.4867 22.6084 28.2849C22.7401 28.0826 22.976 27.9737 23.2155 28.0044L24.5384 28.1709C24.6945 28.191 24.8419 28.0942 24.8855 27.943C26.1848 23.4452 29.7771 19.9772 34.3179 18.8371C38.798 17.7743 43.4993 19.2667 46.5461 22.7189C47.1321 23.381 47.0705 24.3927 46.4084 24.9788C45.7464 25.5648 44.7346 25.5031 44.1486 24.8411ZM51.8354 33.0197C51.9573 33.2297 51.9498 33.4906 51.8162 33.6933C51.6968 33.8719 51.4957 33.9787 51.2809 33.9777C51.2553 33.9795 51.2296 33.9795 51.2041 33.9777L49.8491 33.815C49.6933 33.7969 49.5472 33.8937 49.5033 34.0443C48.2089 38.5494 44.6127 42.024 40.0657 43.1629C35.5855 44.2257 30.8841 42.7339 27.8363 39.2824C27.4417 38.8564 27.3087 38.2501 27.4888 37.698C27.6688 37.146 28.1337 36.7347 28.7036 36.6233C29.2735 36.5119 29.8591 36.7179 30.2338 37.1615C32.5001 39.7276 35.9955 40.8368 39.3268 40.0469C42.5254 39.2392 45.1069 36.8832 46.2029 33.7715C46.2352 33.6795 46.2244 33.5779 46.1734 33.4948C46.1224 33.4117 46.036 33.3564 45.9391 33.345L43.5723 33.062C43.3319 33.0323 43.1288 32.8695 43.0475 32.6413C42.9662 32.4131 43.0206 32.1586 43.1881 31.9836L47.6142 27.3551C47.7522 27.2074 47.953 27.1354 48.1534 27.1617C48.354 27.1848 48.532 27.3011 48.6337 27.4755L51.8354 33.0197Z" fill="#850018"/>
<path d="M37.2084 25.884C34.3849 25.884 32.0887 28.1802 32.0887 31.0037C32.0887 33.8271 34.3849 36.1233 37.2084 36.1233C40.0318 36.1233 42.328 33.8271 42.328 31.0037C42.328 28.1802 40.0318 25.884 37.2084 25.884ZM37.1017 30.3637H37.315C38.1973 30.3637 38.9149 31.0813 38.9149 31.9636C38.9149 32.6582 38.4678 33.2444 37.8483 33.4654V33.7768C37.8483 34.13 37.5616 34.4167 37.2084 34.4167C36.8551 34.4167 36.5684 34.13 36.5684 33.7768V33.5635H36.1418C35.7885 33.5635 35.5018 33.2768 35.5018 32.9235C35.5018 32.5703 35.7885 32.2836 36.1418 32.2836H37.315C37.4917 32.2836 37.635 32.1402 37.635 31.9636C37.635 31.787 37.4917 31.6436 37.315 31.6436H37.1017C36.2194 31.6436 35.5018 30.926 35.5018 30.0437C35.5018 29.3492 35.9489 28.763 36.5684 28.542V28.2305C36.5684 27.8773 36.8551 27.5906 37.2084 27.5906C37.5616 27.5906 37.8483 27.8773 37.8483 28.2305V28.4438H38.275C38.6282 28.4438 38.9149 28.7305 38.9149 29.0838C38.9149 29.4371 38.6282 29.7238 38.275 29.7238H37.1017C36.9251 29.7238 36.7817 29.8671 36.7817 30.0437C36.7817 30.2204 36.9251 30.3637 37.1017 30.3637Z" fill="#850018"/>
<path d="M7.6021 64.5085H9.88903V71H10.7697V64.5085H13.0566V63.7273H7.6021V64.5085ZM14.4158 71H15.2965V68.1591H16.8874C16.9513 68.1591 17.0117 68.1591 17.0721 68.1555L18.6062 71H19.6289L17.9847 67.9957C18.9116 67.6797 19.3448 66.9233 19.3448 65.9574C19.3448 64.6719 18.5778 63.7273 16.8732 63.7273H14.4158V71ZM15.2965 67.3636V64.5085H16.8448C18.0238 64.5085 18.4783 65.0838 18.4783 65.9574C18.4783 66.831 18.0238 67.3636 16.859 67.3636H15.2965ZM21.1106 71L21.8422 68.9403H24.7825L25.514 71H26.4373L23.7669 63.7273H22.8578L20.1873 71H21.1106ZM22.1191 68.1591L23.2839 64.8778H23.3407L24.5055 68.1591H22.1191ZM33.3372 63.7273H32.4707V69.4517H32.3997L28.4224 63.7273H27.5701V71H28.4508V65.2898H28.5218L32.4849 71H33.3372V63.7273ZM39.0767 65.5455H39.929C39.8899 64.4482 38.8778 63.6278 37.4716 63.6278C36.0795 63.6278 34.9858 64.4375 34.9858 65.6591C34.9858 66.6392 35.696 67.2216 36.8324 67.5483L37.7273 67.804C38.4943 68.017 39.1761 68.2869 39.1761 69.0114C39.1761 69.8068 38.4091 70.3324 37.4006 70.3324C36.5341 70.3324 35.767 69.9489 35.696 69.125H34.7869C34.8722 70.3182 35.8381 71.1278 37.4006 71.1278C39.0767 71.1278 40.0284 70.2045 40.0284 69.0256C40.0284 67.6619 38.7358 67.2216 37.983 67.0227L37.2443 66.8239C36.7045 66.6818 35.8381 66.3977 35.8381 65.6165C35.8381 64.9205 36.4773 64.4091 37.4432 64.4091C38.3239 64.4091 38.9915 64.8281 39.0767 65.5455ZM41.4764 71H42.3571V67.7472H45.5105V66.9659H42.3571V64.5085H45.8372V63.7273H41.4764V71ZM47.3455 71H51.7915V70.2188H48.2262V67.7472H51.5075V66.9659H48.2262V64.5085H51.7347V63.7273H47.3455V71ZM53.3221 71H54.2028V68.1591H55.7937C55.8576 68.1591 55.918 68.1591 55.9783 68.1555L57.5124 71H58.5352L56.891 67.9957C57.8178 67.6797 58.2511 66.9233 58.2511 65.9574C58.2511 64.6719 57.484 63.7273 55.7795 63.7273H53.3221V71ZM54.2028 67.3636V64.5085H55.7511C56.93 64.5085 57.3846 65.0838 57.3846 65.9574C57.3846 66.831 56.93 67.3636 55.7653 67.3636H54.2028ZM60.5993 63.7273H59.7186V71H60.5993V63.7273ZM62.3651 71H63.2457V68.1591H64.8366C64.9006 68.1591 64.9609 68.1591 65.0213 68.1555L66.5554 71H67.5781L65.9339 67.9957C66.8608 67.6797 67.294 66.9233 67.294 65.9574C67.294 64.6719 66.527 63.7273 64.8224 63.7273H62.3651V71ZM63.2457 67.3636V64.5085H64.794C65.973 64.5085 66.4276 65.0838 66.4276 65.9574C66.4276 66.831 65.973 67.3636 64.8082 67.3636H63.2457Z" fill="#F8F8F8"/>
</svg>
