<svg width="153" height="144" viewBox="0 0 153 144" fill="none" xmlns="http://www.w3.org/2000/svg">
<g clip-path="url(#clip0)" filter="url(#filter0_d)">
<path d="M141.8 109.1C141.8 118.4 139.8 127.3 136.3 135.4H16.3C12.8 127.4 10.8 118.5 10.8 109.1C10.8 72.9 40.1 43.6 76.3 43.6C112.5 43.6 141.8 72.9 141.8 109.1Z" fill="#440D17"/>
<path d="M74.2002 62.1369C74.2002 62.1369 86.2002 44.1582 90.4002 47.9787C94.7002 51.7991 77.8002 70.5644 77.8002 70.5644L74.2002 62.1369Z" fill="#E48766"/>
<path d="M74.2002 75.1714C74.2002 75.1714 86.2002 57.1928 90.4002 61.0132C94.7002 64.8337 77.8002 83.5989 77.8002 83.5989L74.2002 75.1714Z" fill="#E48766"/>
<path d="M74.2002 88.206C74.2002 88.206 86.2002 70.2273 90.4002 74.0478C94.7002 77.8682 77.8002 96.6335 77.8002 96.6335L74.2002 88.206Z" fill="#E48766"/>
<path d="M84.1001 50.226V63.0358C84.9001 62.0245 85.6001 61.0132 86.4001 59.8895V48.4281C85.6001 48.8776 84.9001 49.4394 84.1001 50.226Z" fill="#202640"/>
<path d="M84.1001 63.2605V76.0704C84.9001 75.0591 85.6001 74.0478 86.4001 72.9241V61.4627C85.6001 61.9121 84.9001 62.474 84.1001 63.2605Z" fill="#202640"/>
<path d="M84.1001 76.2951V89.1049C84.9001 88.0936 85.6001 87.0823 86.4001 85.9587V74.4973C85.6001 74.9467 84.9001 75.5086 84.1001 76.2951Z" fill="#202640"/>
<path d="M71.6 101.016H39.5V135.4H71.6V101.016Z" fill="#E48766"/>
<path d="M81.3 101.016C81.2 102.477 80.8 103.713 80.3 104.836C79.3 106.859 77.9 108.32 76.3 109.443C74.7 110.567 73 111.354 71.6 111.803C70 112.365 68.8 112.59 68.8 112.59V100.903H81.3V101.016Z" fill="#E48766"/>
<path d="M80.3001 101.915V104.836C79.3001 106.859 77.9001 108.32 76.3001 109.443L71.6 108.994L68.8001 108.769L47.3 106.634L48.2001 101.915H80.3001Z" fill="#202640"/>
<path d="M77.8001 106.634H52.8C48.7 106.634 45.3 102.926 45.3 98.2066V38.4275C45.3 33.8205 48.6 30 52.8 30H77.8001C81.9001 30 85.3001 33.7081 85.3001 38.4275V98.2066C85.3001 102.926 81.9001 106.634 77.8001 106.634Z" fill="#C4C4C4"/>
<path d="M52.8 101.016C51.4 101.016 50.3 99.7798 50.3 98.2066V38.4275C50.3 36.8544 51.4 35.6183 52.8 35.6183H77.8001C79.2001 35.6183 80.3001 36.8544 80.3001 38.4275V98.2066C80.3001 99.7798 79.2001 101.016 77.8001 101.016H52.8Z" fill="#F8F8F8"/>
<path d="M47.9001 109.331C47.9001 109.331 62.9001 88.6554 46.8001 79.7785C46.8001 79.7785 56.0001 69.4407 52.6001 65.1708C49.4001 61.1256 30.6001 69.8902 32.0001 86.071C32.2001 88.3183 32.8001 90.4533 33.7001 92.4759C38.5001 103.375 47.9001 109.331 47.9001 109.331Z" fill="#E48766"/>
<path d="M77.2001 66.5192H53.4001V76.6322H77.2001V66.5192Z" fill="#850018"/>
<path d="M129 135.4H95.9001L93.1001 122L95.8001 110L121.8 104.8L129 135.4Z" fill="#E48766"/>
<path d="M121.8 104.8L120 114.8L114.8 95.3L113.6 90.6C114.1 90.6 114.5 90.6 114.9 90.7C121.4 91.9 121.8 104.8 121.8 104.8Z" fill="#E48766"/>
<path d="M119.4 106.3L114.8 95.3L113.6 90.6C114.1 90.6 114.5 90.6 114.9 90.7C116.3 91.8 117.8 93.8 118.7 97.5C120 102.1 119.4 106.3 119.4 106.3Z" fill="#202640"/>
<path d="M120 109.6C119.9 114.8 113.5 116.1 113.5 116.1L105.2 106.9L97.0002 86.8C97.0002 86.8 99.2002 86 102.5 85.9C103.5 85.9 104.7 85.9 105.9 86.1C107.3 86.3 108.9 86.7 110.5 87.4C117.6 90.4 120.1 104.4 120 109.6Z" fill="#E48766"/>
<path d="M111.4 104.1L102.6 85.8C103.6 85.8 104.8 85.8 106 86C107.5 88.4 111.5 95.2 111.4 104.1Z" fill="#202640"/>
<path d="M111.8 110.1C111.7 116 105.3 117.4 105.3 117.4L97.1001 107L88.9001 84.2C88.9001 84.2 89.4001 84 90.4001 83.7C91.3001 83.5 92.5001 83.2 94.0001 83.2C96.3001 83.1 99.3001 83.4 102.4 84.9C109.4 88.4 111.9 104.2 111.8 110.1Z" fill="#E48766"/>
<path d="M102.6 103.6L90.4001 83.6C91.3001 83.4 92.5001 83.1 94.0001 83.1C95.6001 84.2 97.3001 85.3 99.2001 87.6C101.8 93.4 102.6 103.6 102.6 103.6Z" fill="#202640"/>
<path d="M100.4 121.5L93.0001 122C93.0001 122 80.1001 123.9 76.3001 110C73.7001 99.3 76.8001 94.5 78.6001 94.4C83.3001 94 83.6001 102.1 85.0001 105.5C85.3001 106.3 86.2001 106.8 87.1001 106.6C88.1001 106.4 88.8001 105.4 88.6001 104.4L86.7001 93.2C86.7001 93.2 71.4001 82 73.8001 77C76.2001 72 96.0001 85.5 97.3001 87.6C98.6001 89.6 101.1 97.6 101.1 97.6L105.1 117.4L100.4 121.5Z" fill="#E48766"/>
<path d="M130.2 105C131.526 105 132.6 103.925 132.6 102.6C132.6 101.275 131.526 100.2 130.2 100.2C128.875 100.2 127.8 101.275 127.8 102.6C127.8 103.925 128.875 105 130.2 105Z" fill="#EB002B"/>
<path d="M98.0001 66.4C99.3256 66.4 100.4 65.3255 100.4 64C100.4 62.6746 99.3256 61.6 98.0001 61.6C96.6746 61.6 95.6001 62.6746 95.6001 64C95.6001 65.3255 96.6746 66.4 98.0001 66.4Z" fill="#EB002B"/>
<path d="M79.9 26.8C81.3911 26.8 82.6 25.5912 82.6 24.1C82.6 22.6089 81.3911 21.4 79.9 21.4C78.4088 21.4 77.2 22.6089 77.2 24.1C77.2 25.5912 78.4088 26.8 79.9 26.8Z" fill="#EB002B"/>
<path d="M33.4 71.4C33.4 72.9 32.2 74.1 30.7 74.1C29.2 74.1 28 72.9 28 71.4C28 69.9 29.2 68.7 30.7 68.7C32.2 68.8 33.4 70 33.4 71.4Z" fill="#EB002B"/>
<path d="M139 114.1H147.6" stroke="#EB002B" stroke-width="0.75" stroke-miterlimit="10"/>
<path d="M114.2 73.9H121.2" stroke="#EB002B" stroke-width="0.75" stroke-miterlimit="10"/>
<path d="M65 28H73" stroke="#EB002B" stroke-width="0.75" stroke-miterlimit="10"/>
<path d="M16.1001 107.1H25.5001" stroke="#EB002B" stroke-width="0.75" stroke-miterlimit="10"/>
<path d="M83.7002 50.9L99.2002 32.2" stroke="#5581EA" stroke-width="0.75" stroke-miterlimit="10"/>
<path d="M139.112 46.0917C149.656 35.5477 149.656 18.4524 139.112 7.90833C128.568 -2.63572 111.473 -2.63572 100.929 7.90833C90.3846 18.4524 90.3846 35.5477 100.929 46.0917C111.473 56.6358 128.568 56.6358 139.112 46.0917Z" fill="#EB002B"/>
<path d="M149 16.5H105.3V43.4H149V16.5Z" fill="#850018"/>
<path d="M149 22.1H105.3V27.1H149V22.1Z" fill="#F8F8F8"/>
<path d="M127.1 31.3H108.5V35.7H127.1V31.3Z" fill="#F8F8F8"/>
<path d="M137.9 31.3H132.6V37.5H137.9V31.3Z" fill="#F8F8F8"/>
<path d="M146.2 31.3H140.9V37.5H146.2V31.3Z" fill="#850018"/>
<path d="M148.6 135.4H136.3H16.3H4" stroke="#EB002B" stroke-width="0.75" stroke-miterlimit="10"/>
<path d="M59.5829 73H60.198V72.0568H60.715C61.3841 72.0568 61.7733 71.6577 61.7733 71.0767C61.7733 70.4986 61.3912 70.0909 60.7306 70.0909H59.5829V73ZM60.198 71.5639V70.5938H60.6127C60.9679 70.5938 61.1397 70.7869 61.1397 71.0767C61.1397 71.3651 60.9679 71.5639 60.6156 71.5639H60.198ZM62.725 73.0412C63.0474 73.0412 63.2562 72.9006 63.3627 72.6974H63.3798V73H63.9537V71.5284C63.9537 71.0085 63.5133 70.7898 63.0275 70.7898C62.5048 70.7898 62.161 71.0398 62.0772 71.4375L62.6369 71.483C62.6781 71.3381 62.8074 71.2315 63.0247 71.2315C63.2306 71.2315 63.3485 71.3352 63.3485 71.5142V71.5227C63.3485 71.6634 63.1994 71.6818 62.8201 71.7188C62.3883 71.7585 62.0005 71.9034 62.0005 72.3906C62.0005 72.8224 62.3088 73.0412 62.725 73.0412ZM62.8983 72.6236C62.7122 72.6236 62.5787 72.5369 62.5787 72.3707C62.5787 72.2003 62.7193 72.1165 62.9324 72.0866C63.0645 72.0682 63.2804 72.0369 63.3528 71.9886V72.2202C63.3528 72.4489 63.1639 72.6236 62.8983 72.6236ZM65.4061 73.8494C66.0297 73.8494 66.4728 73.5653 66.4728 73.0213V70.8182H65.872V71.1847H65.8493C65.7683 71.0071 65.5907 70.7898 65.2257 70.7898C64.747 70.7898 64.3422 71.1619 64.3422 71.9048C64.3422 72.6307 64.7356 72.9688 65.2271 72.9688C65.5751 72.9688 65.7697 72.794 65.8493 72.6136H65.8748V73.0128C65.8748 73.2983 65.6831 73.4148 65.4203 73.4148C65.1532 73.4148 65.0183 73.2983 64.9686 73.1804L64.4089 73.2557C64.4814 73.5852 64.818 73.8494 65.4061 73.8494ZM65.4189 72.5142C65.122 72.5142 64.96 72.2784 64.96 71.902C64.96 71.5312 65.1191 71.2713 65.4189 71.2713C65.7129 71.2713 65.8777 71.5199 65.8777 71.902C65.8777 72.2869 65.71 72.5142 65.4189 72.5142ZM67.5765 73.0412C67.899 73.0412 68.1078 72.9006 68.2143 72.6974H68.2314V73H68.8052V71.5284C68.8052 71.0085 68.3649 70.7898 67.8791 70.7898C67.3564 70.7898 67.0126 71.0398 66.9288 71.4375L67.4885 71.483C67.5297 71.3381 67.6589 71.2315 67.8762 71.2315C68.0822 71.2315 68.2001 71.3352 68.2001 71.5142V71.5227C68.2001 71.6634 68.051 71.6818 67.6717 71.7188C67.2399 71.7585 66.8521 71.9034 66.8521 72.3906C66.8521 72.8224 67.1603 73.0412 67.5765 73.0412ZM67.7498 72.6236C67.5637 72.6236 67.4302 72.5369 67.4302 72.3707C67.4302 72.2003 67.5708 72.1165 67.7839 72.0866C67.916 72.0682 68.1319 72.0369 68.2044 71.9886V72.2202C68.2044 72.4489 68.0154 72.6236 67.7498 72.6236ZM69.2747 73H69.8798V71.7656C69.8798 71.4972 70.0758 71.3125 70.3429 71.3125C70.4267 71.3125 70.5417 71.3267 70.5985 71.3452V70.8082C70.5446 70.7955 70.4693 70.7869 70.4082 70.7869C70.1639 70.7869 69.9636 70.929 69.8841 71.1989H69.8613V70.8182H69.2747V73Z" fill="white"/>
</g>
<defs>
<filter id="filter0_d" x="0" y="0" width="153" height="143.7" filterUnits="userSpaceOnUse" color-interpolation-filters="sRGB">
<feFlood flood-opacity="0" result="BackgroundImageFix"/>
<feColorMatrix in="SourceAlpha" type="matrix" values="0 0 0 0 0 0 0 0 0 0 0 0 0 0 0 0 0 0 127 0"/>
<feOffset dy="4"/>
<feGaussianBlur stdDeviation="2"/>
<feColorMatrix type="matrix" values="0 0 0 0 0 0 0 0 0 0 0 0 0 0 0 0 0 0 0.25 0"/>
<feBlend mode="normal" in2="BackgroundImageFix" result="effect1_dropShadow"/>
<feBlend mode="normal" in="SourceGraphic" in2="effect1_dropShadow" result="shape"/>
</filter>
<clipPath id="clip0">
<rect width="145" height="135.7" fill="white" transform="translate(4)"/>
</clipPath>
</defs>
</svg>
