<svg width="160" height="143" viewBox="0 0 160 143" fill="none" xmlns="http://www.w3.org/2000/svg">
<g filter="url(#filter0_d)">
<path d="M148.836 108.061C148.836 117.44 146.76 126.416 143.126 134.586H18.5356C14.9017 126.517 12.8252 117.541 12.8252 108.061C12.8252 71.5507 43.246 42 80.8307 42C118.415 42.1009 148.836 71.6516 148.836 108.061Z" fill="#440D17"/>
<path d="M55.2895 92.5211C42.4152 98.1159 33.1748 111.17 32.0327 125.054C36.1857 113.864 45.0109 104.229 55.7048 98.8411C55.601 96.6654 55.601 94.6969 55.2895 92.5211Z" fill="#EB002B"/>
<path d="M50.2022 134.586H4C4.31148 133.135 4.93443 131.374 6.38798 130.752C7.84153 130.234 9.50273 130.441 10.6448 131.374C9.19126 129.302 10.2295 126.09 12.0984 124.432C13.9672 122.774 16.7705 122.36 19.1585 123.189C21.5464 124.018 23.4153 125.883 24.5574 128.058C24.5574 126.297 25.8033 124.328 27.4645 123.914C29.2295 123.5 31.0984 124.328 31.929 125.986C31.8251 123.914 33.4863 121.946 35.459 121.738C37.5355 121.531 39.5082 122.671 40.6503 124.328C41.7924 125.986 42.2077 128.162 42.1038 130.13C45.4262 129.612 49.0601 131.581 50.2022 134.586Z" fill="#EB002B"/>
<path d="M140.219 107.13C140.219 108.787 138.869 110.134 137.208 110.134C135.547 110.134 134.197 108.787 134.197 107.13C134.197 105.472 135.547 104.125 137.208 104.125C138.869 104.125 140.219 105.472 140.219 107.13Z" fill="#EB002B"/>
<path d="M88.5138 29.4244C88.5138 30.9785 87.2679 32.2218 85.7105 32.2218C84.1531 32.2218 82.9072 30.9785 82.9072 29.4244C82.9072 27.8703 84.1531 26.627 85.7105 26.627C87.3717 26.627 88.5138 27.8703 88.5138 29.4244Z" fill="#EB002B"/>
<path d="M33.1749 87.9624C33.1749 89.6201 31.8252 90.967 30.164 90.967C28.5028 90.967 27.1531 89.6201 27.1531 87.9624C27.1531 86.3047 28.5028 84.9578 30.164 84.9578C31.8252 84.9578 33.1749 86.3047 33.1749 87.9624Z" fill="#EB002B"/>
<path d="M13.5519 53.4612C13.5519 54.7045 12.5137 55.7406 11.2678 55.7406C10.0219 55.7406 8.98364 54.7045 8.98364 53.4612C8.98364 52.218 10.0219 51.1819 11.2678 51.1819C12.6175 51.2855 13.5519 52.218 13.5519 53.4612Z" fill="#EB002B"/>
<path d="M138.869 122.567H150.913" stroke="#EB002B" stroke-width="0.75" stroke-miterlimit="10"/>
<path d="M139.596 79.9847H151.12" stroke="#EB002B" stroke-width="0.75" stroke-miterlimit="10"/>
<path d="M104.191 34.4022H109.175" stroke="#EB002B" stroke-width="0.75" stroke-miterlimit="10"/>
<path d="M8.56836 60.8174H17.6011" stroke="#EB002B" stroke-width="0.75" stroke-miterlimit="10"/>
<path d="M15.3169 102.157H25.5956" stroke="#EB002B" stroke-width="0.75" stroke-miterlimit="10"/>
<path d="M156 134.586H143.126H18.6395H5.76514" stroke="#EB002B" stroke-width="0.75" stroke-miterlimit="10"/>
<path d="M58.6048 37L58 115.12L106.175 115.491L106.78 37.3714L58.6048 37Z" fill="#850018"/>
<path d="M68.6619 37.0935L68.0571 115.213L76.9861 115.282L77.5909 37.1623L68.6619 37.0935Z" fill="#F8F8F8"/>
<path d="M84.6994 76.2819L84.4412 109.643L92.4357 109.705L92.694 76.3436L84.6994 76.2819Z" fill="#F8F8F8"/>
<path d="M84.8948 57.1493L84.821 66.6811L95.9303 66.7668L96.0041 57.2349L84.8948 57.1493Z" fill="#F8F8F8"/>
<path d="M84.9732 42.2769L84.8994 51.8088L96.0087 51.8944L96.0825 42.3626L84.9732 42.2769Z" fill="#F8F8F8"/>
<path d="M106.476 67.8626C113.017 70.2456 118 76.8764 119.142 84.647C120.388 92.4175 117.481 100.81 111.978 105.679C108.344 108.891 103.88 110.445 99.4154 111.378C89.552 113.553 78.7542 113.864 69.6176 109.098C45.1149 96.1473 39.8198 67.759 39.9236 53.5648H43.5575C44.2843 69.6239 49.787 84.1289 60.8963 92.6247C72.0056 101.017 86.9564 102.157 98.8963 95.6293C102.53 93.6608 105.956 90.8634 108.033 86.8227C110.006 82.782 109.798 77.3945 107.41 73.7682L106.476 67.8626Z" fill="#EB002B"/>
<path d="M32.448 30.2533C32.448 30.2533 22.377 36.4697 22.377 53.254C27.0491 48.5917 33.2786 46.2088 41.2731 46.2088L32.448 30.2533Z" fill="#C4C4C4"/>
<path d="M53.0053 30.2533C53.0053 30.2533 63.0764 36.4697 63.0764 53.254C58.4042 48.5917 52.1747 46.2088 44.1802 46.2088L53.0053 30.2533Z" fill="#C4C4C4"/>
<path d="M42.7267 0C35.1474 5.69839 30.1638 14.7122 30.1638 24.9693C30.1638 35.2264 35.1474 44.2402 42.7267 49.9386C50.4097 44.2402 55.2895 35.2264 55.2895 24.9693C55.2895 14.7122 50.4097 5.69839 42.7267 0Z" fill="#EB002B"/>
<path d="M42.7268 30.7713C46.97 30.7713 50.4098 27.3387 50.4098 23.1044C50.4098 18.87 46.97 15.4374 42.7268 15.4374C38.4835 15.4374 35.0437 18.87 35.0437 23.1044C35.0437 27.3387 38.4835 30.7713 42.7268 30.7713Z" fill="#C4C4C4"/>
<path d="M47.2951 46.2087H38.1584V51.8035H47.2951V46.2087Z" fill="#C4C4C4"/>
</g>
<defs>
<filter id="filter0_d" x="0" y="0" width="160" height="143" filterUnits="userSpaceOnUse" color-interpolation-filters="sRGB">
<feFlood flood-opacity="0" result="BackgroundImageFix"/>
<feColorMatrix in="SourceAlpha" type="matrix" values="0 0 0 0 0 0 0 0 0 0 0 0 0 0 0 0 0 0 127 0"/>
<feOffset dy="4"/>
<feGaussianBlur stdDeviation="2"/>
<feColorMatrix type="matrix" values="0 0 0 0 0 0 0 0 0 0 0 0 0 0 0 0 0 0 0.25 0"/>
<feBlend mode="normal" in2="BackgroundImageFix" result="effect1_dropShadow"/>
<feBlend mode="normal" in="SourceGraphic" in2="effect1_dropShadow" result="shape"/>
</filter>
</defs>
</svg>
