<svg width="337" height="166" viewBox="0 0 337 166" fill="none" xmlns="http://www.w3.org/2000/svg">
<path d="M13.0134 27.1406C13.7677 27.1406 14.4133 26.5142 14.4197 25.7344C14.4133 24.9673 13.7677 24.3409 13.0134 24.3409C12.2336 24.3409 11.6008 24.9673 11.6072 25.7344C11.6008 26.5142 12.2336 27.1406 13.0134 27.1406ZM17.6605 27.1406C18.4147 27.1406 19.0603 26.5142 19.0667 25.7344C19.0603 24.9673 18.4147 24.3409 17.6605 24.3409C16.8806 24.3409 16.2478 24.9673 16.2542 25.7344C16.2478 26.5142 16.8806 27.1406 17.6605 27.1406ZM22.3011 27.1406C23.0553 27.1406 23.7009 26.5142 23.7073 25.7344C23.7009 24.9673 23.0553 24.3409 22.3011 24.3409C21.5213 24.3409 20.8884 24.9673 20.8948 25.7344C20.8884 26.5142 21.5213 27.1406 22.3011 27.1406ZM35.0812 13.9091H32.8248L29.5712 15.9993V18.1726L32.633 16.2166H32.7097V27H35.0812V13.9091ZM38.24 27H47.2145V25.0185H41.5128V24.929L43.7692 22.6342C46.3132 20.1925 47.0163 19.0036 47.0163 17.527C47.0163 15.3345 45.2329 13.7301 42.5994 13.7301C40.0042 13.7301 38.1633 15.3409 38.1633 17.8274H40.4197C40.4197 16.4915 41.2635 15.6541 42.5674 15.6541C43.8139 15.6541 44.7407 16.4148 44.7407 17.6484C44.7407 18.7415 44.076 19.5213 42.7848 20.8317L38.24 25.2869V27ZM53.9529 27.179C56.7526 27.179 58.7917 25.5746 58.7853 23.3629C58.7917 21.7266 57.7689 20.5504 55.9344 20.2884V20.1861C57.3534 19.8793 58.3059 18.8246 58.2995 17.3544C58.3059 15.3601 56.6056 13.7301 53.9912 13.7301C51.4472 13.7301 49.4784 15.245 49.4273 17.4375H51.7093C51.7476 16.3381 52.7703 15.6541 53.9784 15.6541C55.1993 15.6541 56.0111 16.3956 56.0047 17.495C56.0111 18.6392 55.0651 19.3999 53.71 19.3999H52.553V21.228H53.71C55.3655 21.228 56.3499 22.0589 56.3435 23.2415C56.3499 24.3984 55.3463 25.1911 53.9465 25.1911C52.6297 25.1911 51.6134 24.5071 51.5559 23.4396H49.1524C49.2164 25.6513 51.1915 27.179 53.9529 27.179ZM60.5778 24.571H66.8229V27H69.0856V24.571H70.7604V22.6214H69.0856V13.9091H66.1325L60.5778 22.6854V24.571ZM66.8484 22.6214H63.0068V22.5192L66.7461 16.5938H66.8484V22.6214Z" fill="#F8F8F8"/>
<path d="M213.61 13.9091H211.948L216.755 27H218.391L223.198 13.9091H221.536L217.65 24.929H217.497L213.61 13.9091ZM224.868 27H226.376V17.1818H224.868V27ZM225.635 15.5455C226.223 15.5455 226.709 15.0852 226.709 14.5227C226.709 13.9602 226.223 13.5 225.635 13.5C225.047 13.5 224.561 13.9602 224.561 14.5227C224.561 15.0852 225.047 15.5455 225.635 15.5455ZM235.929 19.3807C235.456 17.9872 234.395 17.054 232.452 17.054C230.38 17.054 228.846 18.2301 228.846 19.892C228.846 21.2472 229.652 22.1548 231.454 22.5767L233.091 22.9602C234.081 23.1903 234.548 23.6634 234.548 24.3409C234.548 25.1847 233.653 25.875 232.247 25.875C231.013 25.875 230.24 25.3445 229.971 24.2898L228.54 24.6477C228.891 26.3161 230.265 27.2045 232.273 27.2045C234.554 27.2045 236.108 25.9581 236.108 24.2642C236.108 22.8963 235.251 22.0334 233.5 21.6051L232.042 21.2472C230.879 20.9595 230.355 20.5696 230.355 19.8153C230.355 18.9716 231.25 18.358 232.452 18.358C233.768 18.358 234.312 19.0866 234.574 19.7642L235.929 19.3807ZM241.103 27.2301C242.816 27.2301 243.711 26.3097 244.018 25.6705H244.094V27H245.603V20.5312C245.603 17.4119 243.225 17.054 241.972 17.054C240.489 17.054 238.802 17.5653 238.035 19.3551L239.466 19.8665C239.799 19.1506 240.585 18.3835 242.023 18.3835C243.41 18.3835 244.094 19.1186 244.094 20.3778V20.429C244.094 21.1577 243.353 21.0938 241.563 21.3239C239.741 21.5604 237.753 21.9631 237.753 24.2131C237.753 26.1307 239.236 27.2301 241.103 27.2301ZM241.333 25.875C240.131 25.875 239.262 25.3381 239.262 24.2898C239.262 23.1392 240.31 22.7812 241.486 22.6278C242.125 22.5511 243.839 22.3722 244.094 22.0653V23.446C244.094 24.6733 243.123 25.875 241.333 25.875ZM276.923 27C280.912 27 283.162 24.5199 283.162 20.429C283.162 16.3636 280.912 13.9091 277.102 13.9091H272.883V27H276.923ZM274.468 25.5938V15.3153H277C280.068 15.3153 281.627 17.2585 281.627 20.429C281.627 23.625 280.068 25.5938 276.821 25.5938H274.468ZM289.568 27.2045C291.562 27.2045 293.019 26.2074 293.48 24.7244L292.022 24.3153C291.639 25.3381 290.75 25.8494 289.568 25.8494C287.797 25.8494 286.576 24.7053 286.506 22.6023H293.633V21.9631C293.633 18.3068 291.46 17.054 289.414 17.054C286.755 17.054 284.991 19.1506 284.991 22.1676C284.991 25.1847 286.73 27.2045 289.568 27.2045ZM286.506 21.2983C286.608 19.7706 287.688 18.4091 289.414 18.4091C291.051 18.4091 292.099 19.6364 292.099 21.2983H286.506ZM288.647 15.8523H289.977L291.971 12.8864H290.207L288.647 15.8523ZM295.967 27H297.425V25.4915H297.604C297.936 26.0284 298.575 27.2045 300.467 27.2045C302.922 27.2045 304.635 25.2358 304.635 22.1165C304.635 19.0227 302.922 17.054 300.442 17.054C298.524 17.054 297.936 18.2301 297.604 18.7415H297.476V13.9091H295.967V27ZM297.45 22.0909C297.45 19.892 298.422 18.4091 300.263 18.4091C302.18 18.4091 303.126 20.0199 303.126 22.0909C303.126 24.1875 302.155 25.8494 300.263 25.8494C298.447 25.8494 297.45 24.3153 297.45 22.0909ZM306.777 27H308.286V17.1818H306.777V27ZM307.544 15.5455C308.132 15.5455 308.618 15.0852 308.618 14.5227C308.618 13.9602 308.132 13.5 307.544 13.5C306.956 13.5 306.471 13.9602 306.471 14.5227C306.471 15.0852 306.956 15.5455 307.544 15.5455ZM315.154 17.1818H313.057V14.8295H311.549V17.1818H310.066V18.4602H311.549V24.5966C311.549 26.3097 312.929 27.1278 314.208 27.1278C314.77 27.1278 315.128 27.0256 315.333 26.9489L315.026 25.5938C314.898 25.6193 314.694 25.6705 314.361 25.6705C313.696 25.6705 313.057 25.4659 313.057 24.1875V18.4602H315.154V17.1818ZM321.141 27.2045C323.8 27.2045 325.59 25.1847 325.59 22.142C325.59 19.0739 323.8 17.054 321.141 17.054C318.482 17.054 316.692 19.0739 316.692 22.142C316.692 25.1847 318.482 27.2045 321.141 27.2045ZM321.141 25.8494C319.121 25.8494 318.201 24.1108 318.201 22.142C318.201 20.1733 319.121 18.4091 321.141 18.4091C323.161 18.4091 324.081 20.1733 324.081 22.142C324.081 24.1108 323.161 25.8494 321.141 25.8494Z" fill="#F8F8F8"/>
<rect y="35" width="337" height="118" rx="5" fill="#FFFAFB"/>
<path fill-rule="evenodd" clip-rule="evenodd" d="M271.127 74L269 76.1L275.99 83L269 89.9L271.127 92L280.244 83L271.127 74Z" fill="#C4C4C4"/>
<path d="M97.9767 91.6364H99.0249V90.2109C101.71 90.0256 103.218 88.4403 103.218 86.446C103.218 83.9915 100.891 83.1989 99.5363 82.8409L99.0249 82.7003V78.1555C100.38 78.2898 101.364 79.0185 101.505 80.1818H103.039C102.975 78.3153 101.339 76.8963 99.0249 76.7429V75.2727H97.9767V76.7621C95.7842 76.9858 94.1414 78.3793 94.1414 80.3864C94.1414 82.1506 95.4198 83.1989 97.4653 83.7869L97.9767 83.9339V88.7727C96.6343 88.6321 95.5349 87.9418 95.4198 86.625H93.7835C93.9305 88.6385 95.4646 90.0447 97.9767 90.2109V91.6364ZM99.0249 88.7727V84.2344L99.0761 84.2472C100.457 84.6307 101.684 85.1165 101.684 86.4205C101.684 87.7053 100.572 88.6001 99.0249 88.7727ZM97.9767 82.419C97.0051 82.1442 95.6755 81.6072 95.6755 80.3097C95.6755 79.2038 96.5704 78.3601 97.9767 78.1747V82.419Z" fill="#850018"/>
<path d="M117.472 69.8182H114.301L107.756 74.1648V77.3864L114.148 73.142H114.301V96H117.472V69.8182ZM133.683 96.358C138.759 96.358 142.53 93.1747 142.53 88.892C142.53 85.5682 140.561 83.152 137.263 82.6023V82.3977C139.909 81.5923 141.558 79.419 141.558 76.4659C141.558 72.7585 138.631 69.4602 133.785 69.4602C129.26 69.4602 125.501 72.2472 125.348 76.3636H128.416C128.531 73.7557 131.011 72.2216 133.734 72.2216C136.624 72.2216 138.49 73.973 138.49 76.6193C138.49 79.3807 136.33 81.1705 133.223 81.1705H131.126V83.983H133.223C137.199 83.983 139.41 86.0028 139.41 88.892C139.41 91.6662 136.994 93.5455 133.632 93.5455C130.602 93.5455 128.199 91.9858 128.007 89.4545H124.785C124.977 93.571 128.608 96.358 133.683 96.358ZM151.336 92.4205H148.063L147.91 93.8523C147.539 97.3168 146.81 100.768 146.478 102.392H148.779C149.393 100.653 150.697 96.7159 151.132 93.8011L151.336 92.4205ZM164.489 96.358C169.781 96.4219 173.233 92.4332 173.233 87.5625C173.233 82.5 169.487 78.8693 165 78.8693C162.303 78.8693 159.989 80.1861 158.557 82.3466H158.353C158.365 75.9673 160.845 72.2727 164.898 72.2727C167.659 72.2727 169.321 74.0114 169.909 76.3636H173.029C172.389 72.2983 169.296 69.4602 164.898 69.4602C159.005 69.4602 155.387 74.6761 155.387 83.9318C155.387 93.6094 160.193 96.3068 164.489 96.358ZM164.489 93.5455C161.203 93.5455 158.8 90.7457 158.813 87.6136C158.826 84.4815 161.344 81.6818 164.591 81.6818C167.8 81.6818 170.165 84.3153 170.165 87.5625C170.165 90.8864 167.698 93.5455 164.489 93.5455ZM178.914 96H182.238L193.897 72.7841V69.8182H177.124V72.6307H190.624V72.8352L178.914 96ZM206.356 96.358C211.585 96.358 215.228 93.3026 215.254 89.0455C215.228 85.7344 213.016 82.9219 210.191 82.3977V82.2443C212.646 81.6051 214.257 79.2017 214.282 76.4148C214.257 72.4261 210.907 69.4602 206.356 69.4602C201.754 69.4602 198.404 72.4261 198.43 76.4148C198.404 79.2017 200.015 81.6051 202.521 82.2443V82.3977C199.644 82.9219 197.433 85.7344 197.458 89.0455C197.433 93.3026 201.076 96.358 206.356 96.358ZM206.356 93.5455C202.764 93.5455 200.552 91.7045 200.578 88.892C200.552 85.9389 202.994 83.8295 206.356 83.8295C209.667 83.8295 212.109 85.9389 212.134 88.892C212.109 91.7045 209.897 93.5455 206.356 93.5455ZM206.356 81.1193C203.492 81.1193 201.472 79.3295 201.498 76.6193C201.472 73.9602 203.416 72.2216 206.356 72.2216C209.245 72.2216 211.188 73.9602 211.214 76.6193C211.188 79.3295 209.168 81.1193 206.356 81.1193Z" fill="#850018"/>
<path d="M228.526 81.179C231.173 81.2109 232.899 79.2166 232.899 76.7812C232.899 74.25 231.026 72.4347 228.782 72.4347C227.433 72.4347 226.276 73.093 225.56 74.1733H225.458C225.465 70.9837 226.705 69.1364 228.731 69.1364C230.112 69.1364 230.943 70.0057 231.237 71.1818H232.796C232.477 69.1491 230.93 67.7301 228.731 67.7301C225.784 67.7301 223.975 70.3381 223.975 74.9659C223.975 79.8047 226.379 81.1534 228.526 81.179ZM228.526 79.7727C226.884 79.7727 225.682 78.3729 225.688 76.8068C225.695 75.2408 226.954 73.8409 228.578 73.8409C230.182 73.8409 231.364 75.1577 231.364 76.7812C231.364 78.4432 230.131 79.7727 228.526 79.7727ZM235.656 81H237.318L243.148 69.392V67.9091H234.761V69.3153H241.511V69.4176L235.656 81Z" fill="#850018"/>
<path d="M94.4016 123L95.2794 120.528H98.8078L99.6857 123H100.794L97.5891 114.273H96.4982L93.2936 123H94.4016ZM95.6118 119.591L97.0095 115.653H97.0777L98.4754 119.591H95.6118ZM104.323 123.136C105.585 123.136 106.011 122.352 106.232 121.994H106.352V123H107.323V114.273H106.318V117.494H106.232C106.011 117.153 105.619 116.369 104.34 116.369C102.687 116.369 101.545 117.682 101.545 119.744C101.545 121.824 102.687 123.136 104.323 123.136ZM104.46 122.233C103.198 122.233 102.55 121.125 102.55 119.727C102.55 118.347 103.181 117.273 104.46 117.273C105.687 117.273 106.335 118.261 106.335 119.727C106.335 121.21 105.67 122.233 104.46 122.233ZM109.14 123H110.145V118.909C110.145 117.95 110.844 117.273 111.628 117.273C112.391 117.273 112.924 117.771 112.924 118.517V123H113.947V118.739C113.947 117.895 114.475 117.273 115.395 117.273C116.111 117.273 116.725 117.652 116.725 118.619V123H117.731V118.619C117.731 117.081 116.904 116.369 115.736 116.369C114.799 116.369 114.113 116.8 113.776 117.477H113.708C113.384 116.778 112.813 116.369 111.952 116.369C111.1 116.369 110.469 116.778 110.197 117.477H110.111V116.455H109.14V123ZM119.404 123H120.41V116.455H119.404V123ZM119.916 115.364C120.308 115.364 120.632 115.057 120.632 114.682C120.632 114.307 120.308 114 119.916 114C119.524 114 119.2 114.307 119.2 114.682C119.2 115.057 119.524 115.364 119.916 115.364ZM123.093 119.062C123.093 117.92 123.8 117.273 124.763 117.273C125.696 117.273 126.263 117.882 126.263 118.909V123H127.269V118.841C127.269 117.17 126.378 116.369 125.053 116.369C124.064 116.369 123.451 116.812 123.144 117.477H123.059V116.455H122.087V123H123.093V119.062ZM128.942 123H129.947V116.455H128.942V123ZM129.453 115.364C129.845 115.364 130.169 115.057 130.169 114.682C130.169 114.307 129.845 114 129.453 114C129.061 114 128.737 114.307 128.737 114.682C128.737 115.057 129.061 115.364 129.453 115.364ZM136.261 117.92C135.945 116.991 135.238 116.369 133.942 116.369C132.562 116.369 131.539 117.153 131.539 118.261C131.539 119.165 132.076 119.77 133.278 120.051L134.369 120.307C135.029 120.46 135.34 120.776 135.34 121.227C135.34 121.79 134.744 122.25 133.806 122.25C132.984 122.25 132.468 121.896 132.289 121.193L131.335 121.432C131.569 122.544 132.485 123.136 133.823 123.136C135.344 123.136 136.38 122.305 136.38 121.176C136.38 120.264 135.809 119.689 134.641 119.403L133.67 119.165C132.894 118.973 132.545 118.713 132.545 118.21C132.545 117.648 133.141 117.239 133.942 117.239C134.82 117.239 135.183 117.724 135.357 118.176L136.261 117.92ZM140.575 116.455H139.178V114.886H138.172V116.455H137.183V117.307H138.172V121.398C138.172 122.54 139.092 123.085 139.945 123.085C140.32 123.085 140.558 123.017 140.695 122.966L140.49 122.062C140.405 122.08 140.269 122.114 140.047 122.114C139.604 122.114 139.178 121.977 139.178 121.125V117.307H140.575V116.455ZM141.923 123H142.929V118.858C142.929 117.972 143.628 117.324 144.582 117.324C144.851 117.324 145.128 117.375 145.196 117.392V116.369C145.081 116.361 144.817 116.352 144.668 116.352C143.883 116.352 143.202 116.795 142.963 117.443H142.895V116.455H141.923V123ZM148.149 123.153C149.291 123.153 149.888 122.54 150.092 122.114H150.143V123H151.149V118.688C151.149 116.608 149.564 116.369 148.729 116.369C147.74 116.369 146.615 116.71 146.104 117.903L147.058 118.244C147.28 117.767 147.804 117.256 148.763 117.256C149.688 117.256 150.143 117.746 150.143 118.585V118.619C150.143 119.105 149.649 119.062 148.456 119.216C147.241 119.374 145.916 119.642 145.916 121.142C145.916 122.42 146.905 123.153 148.149 123.153ZM148.303 122.25C147.501 122.25 146.922 121.892 146.922 121.193C146.922 120.426 147.621 120.188 148.405 120.085C148.831 120.034 149.973 119.915 150.143 119.71V120.631C150.143 121.449 149.496 122.25 148.303 122.25ZM152.82 123H153.825V118.858C153.825 117.972 154.524 117.324 155.479 117.324C155.747 117.324 156.024 117.375 156.092 117.392V116.369C155.977 116.361 155.713 116.352 155.564 116.352C154.78 116.352 154.098 116.795 153.86 117.443H153.791V116.455H152.82V123ZM160.977 125.438C161.885 125.438 162.528 124.956 162.903 123.955L165.69 116.472L164.591 116.455L162.784 121.67H162.716L160.909 116.455H159.818L162.239 123.034L162.051 123.545C161.693 124.526 161.233 124.619 160.5 124.432L160.244 125.318C160.347 125.369 160.636 125.438 160.977 125.438ZM175.418 116.455H174.327L172.521 121.67H172.452L170.646 116.455H169.555L171.975 123H172.998L175.418 116.455ZM179.091 123.136C180.42 123.136 181.392 122.472 181.699 121.483L180.727 121.21C180.471 121.892 179.879 122.233 179.091 122.233C177.91 122.233 177.096 121.47 177.049 120.068H181.801V119.642C181.801 117.205 180.352 116.369 178.988 116.369C177.216 116.369 176.039 117.767 176.039 119.778C176.039 121.79 177.199 123.136 179.091 123.136ZM177.049 119.199C177.118 118.18 177.838 117.273 178.988 117.273C180.079 117.273 180.778 118.091 180.778 119.199H177.049ZM183.166 123H184.171V118.858C184.171 117.972 184.87 117.324 185.825 117.324C186.093 117.324 186.37 117.375 186.438 117.392V116.369C186.323 116.361 186.059 116.352 185.91 116.352C185.126 116.352 184.444 116.795 184.205 117.443H184.137V116.455H183.166V123ZM191.681 119.062C191.681 117.92 192.41 117.273 193.403 117.273C194.349 117.273 194.92 117.869 194.92 118.909V123H195.926V118.841C195.926 117.158 195.031 116.369 193.693 116.369C192.661 116.369 192.073 116.8 191.766 117.477H191.681V114.273H190.676V123H191.681V119.062ZM197.6 123H198.606V116.455H197.6V123ZM198.112 115.364C198.504 115.364 198.828 115.057 198.828 114.682C198.828 114.307 198.504 114 198.112 114C197.72 114 197.396 114.307 197.396 114.682C197.396 115.057 197.72 115.364 198.112 115.364ZM204.919 117.92C204.604 116.991 203.897 116.369 202.601 116.369C201.221 116.369 200.198 117.153 200.198 118.261C200.198 119.165 200.735 119.77 201.936 120.051L203.027 120.307C203.688 120.46 203.999 120.776 203.999 121.227C203.999 121.79 203.402 122.25 202.465 122.25C201.642 122.25 201.127 121.896 200.948 121.193L199.993 121.432C200.228 122.544 201.144 123.136 202.482 123.136C204.003 123.136 205.039 122.305 205.039 121.176C205.039 120.264 204.468 119.689 203.3 119.403L202.328 119.165C201.553 118.973 201.203 118.713 201.203 118.21C201.203 117.648 201.8 117.239 202.601 117.239C203.479 117.239 203.841 117.724 204.016 118.176L204.919 117.92ZM209.234 116.455H207.836V114.886H206.831V116.455H205.842V117.307H206.831V121.398C206.831 122.54 207.751 123.085 208.603 123.085C208.978 123.085 209.217 123.017 209.353 122.966L209.149 122.062C209.064 122.08 208.927 122.114 208.706 122.114C208.263 122.114 207.836 121.977 207.836 121.125V117.307H209.234V116.455ZM213.171 123.136C214.943 123.136 216.137 121.79 216.137 119.761C216.137 117.716 214.943 116.369 213.171 116.369C211.398 116.369 210.205 117.716 210.205 119.761C210.205 121.79 211.398 123.136 213.171 123.136ZM213.171 122.233C211.824 122.233 211.21 121.074 211.21 119.761C211.21 118.449 211.824 117.273 213.171 117.273C214.517 117.273 215.131 118.449 215.131 119.761C215.131 121.074 214.517 122.233 213.171 122.233ZM217.507 123H218.512V118.858C218.512 117.972 219.211 117.324 220.166 117.324C220.434 117.324 220.711 117.375 220.78 117.392V116.369C220.664 116.361 220.4 116.352 220.251 116.352C219.467 116.352 218.785 116.795 218.547 117.443H218.478V116.455H217.507V123ZM221.807 123H222.812V116.455H221.807V123ZM222.318 115.364C222.71 115.364 223.034 115.057 223.034 114.682C223.034 114.307 222.71 114 222.318 114C221.926 114 221.602 114.307 221.602 114.682C221.602 115.057 221.926 115.364 222.318 115.364ZM226.415 123.153C227.557 123.153 228.154 122.54 228.359 122.114H228.41V123H229.415V118.688C229.415 116.608 227.83 116.369 226.995 116.369C226.006 116.369 224.881 116.71 224.37 117.903L225.324 118.244C225.546 117.767 226.07 117.256 227.029 117.256C227.954 117.256 228.41 117.746 228.41 118.585V118.619C228.41 119.105 227.915 119.062 226.722 119.216C225.508 119.374 224.182 119.642 224.182 121.142C224.182 122.42 225.171 123.153 226.415 123.153ZM226.569 122.25C225.768 122.25 225.188 121.892 225.188 121.193C225.188 120.426 225.887 120.188 226.671 120.085C227.097 120.034 228.239 119.915 228.41 119.71V120.631C228.41 121.449 227.762 122.25 226.569 122.25ZM232.092 114.273H231.086V123H232.092V114.273Z" fill="#717171"/>
</svg>
