<svg width="33" height="35" viewBox="0 0 33 35" fill="none" xmlns="http://www.w3.org/2000/svg">
<g filter="url(#filter0_d)">
<path d="M5.12413 25.5106L6.63962 22.6299L5.88521 21.3917C4.13382 18.5173 3.59067 14.8137 4.43237 11.4852C5.88891 5.72533 11.1313 1.60858 17.0095 1.60858C21.8694 1.60858 26.5925 4.56415 28.6511 8.89342C29.6847 11.0673 29.9855 12.389 29.9855 14.7571C29.9855 18.2403 28.7034 21.332 26.2343 23.8031C22.1983 27.8422 16.079 28.8097 11.0213 26.2083C10.3041 25.8394 9.66899 25.5498 9.61001 25.5648C9.55103 25.5797 8.17659 26.2218 6.55571 26.9917L3.60864 28.3914L5.12413 25.5106ZM19.0471 21.4404V19.6174H17.224H15.4009V21.4404V23.2635H17.224H19.0471V21.4404ZM19.2299 17.2568C19.3535 16.9021 19.908 16.0576 20.4621 15.3801C21.0163 14.7025 21.6463 13.7621 21.8622 13.2902C22.8595 11.111 21.8785 8.5252 19.6036 7.33708C18.3741 6.69496 15.8634 6.69141 14.6503 7.33007C13.4856 7.94324 12.6945 8.82225 12.2993 9.9422C11.6922 11.6631 11.7092 11.6816 13.8996 11.6816C15.6681 11.6816 15.8299 11.6467 15.8299 11.2648C15.8299 10.3764 17.4007 9.85143 18.0666 10.5173C18.707 11.1577 18.4874 12.1855 17.4677 13.3207C15.8779 15.0906 15.4009 15.9319 15.4009 16.9663V17.9015H17.203H19.0051L19.2299 17.2568Z" fill="#EB002B"/>
</g>
<defs>
<filter id="filter0_d" x="-1" y="0" width="35.5941" height="36" filterUnits="userSpaceOnUse" color-interpolation-filters="sRGB">
<feFlood flood-opacity="0" result="BackgroundImageFix"/>
<feColorMatrix in="SourceAlpha" type="matrix" values="0 0 0 0 0 0 0 0 0 0 0 0 0 0 0 0 0 0 127 0"/>
<feOffset dy="3"/>
<feGaussianBlur stdDeviation="1.5"/>
<feColorMatrix type="matrix" values="0 0 0 0 0 0 0 0 0 0 0 0 0 0 0 0 0 0 0.25 0"/>
<feBlend mode="normal" in2="BackgroundImageFix" result="effect1_dropShadow"/>
<feBlend mode="normal" in="SourceGraphic" in2="effect1_dropShadow" result="shape"/>
</filter>
</defs>
</svg>
