<svg xmlns="http://www.w3.org/2000/svg" width="123" height="14" fill="#fff" xmlns:v="https://vecta.io/nano"><path d="M23.598 3.12c-.123-.268-.347-.487-.6-.675-.423-.306-.912-.53-1.427-.72-1.342-.5-2.764-.763-4.22-.92l-2.647-.2A31.78 31.78 0 0 0 11 .653l-2.914.34c-1.102.193-2.18.442-3.186.858-.5.2-.985.46-1.363.807-.586.537-.6 1.17-.004 1.703a4.28 4.28 0 0 0 .796.548c.752.4 1.6.66 2.47.867.905.218 1.83.365 2.767.473l1.088.106 1.774-4.836c.006.004.015.005.022.007l.3 4.92.353.013 2.175-.054a26.11 26.11 0 0 0 3.3-.346c1.078-.18 2.132-.42 3.125-.806.588-.23 1.145-.498 1.565-.9.372-.363.53-.765.32-1.223M10.273 6.574C9 6.6 7.716 6.7 6.456 6.903c-1.217.198-2.402.473-3.514.924-.706.288-1.362.63-1.856 1.134-.45.46-.647.968-.426 1.542.185.478.584.837 1.06 1.144.806.518 1.736.85 2.7 1.116 1.006.275 2.043.452 3.095.578l.493.048 2.5-6.815c-.095 0-.17-.001-.247 0"/><path d="M19.564 8.186c-.912-.483-1.922-.8-2.967-1.03-1-.228-2.024-.375-3.06-.472l-.765-.057.398 6.798c.08 0 .142.006.203-.003l1.902-.233c1.145-.174 2.257-.44 3.3-.84.76-.3 1.465-.64 2.014-1.164.666-.635.743-1.374.206-2.048-.314-.398-.754-.695-1.24-.952m15.637-2.688c0 .134 0 .54-.966.54H29V4.12h5.236c.966 0 .966.406.966.54v.837zM29 7.673h5.236c.46 0 .67.058.763.105.174.096.262.293.262.588v.667c0 .294-.088.492-.26.586-.14.07-.397.107-.766.107H29V7.673zm7.27-.808c.868-.215 1.306-.714 1.306-1.488V4.3c0-1.195-.796-1.8-2.367-1.8h-8.722v9h8.098c2.036 0 3.07-.6 3.07-1.818V8.554c0-.886-.465-1.452-1.385-1.7zm11.63.93h-4.05l2.062-3.3 2 3.3zM47.18 2.5H44.8l-5.812 9h2.583l1.17-1.93h6.25l1.2 1.93h2.876l-5.9-9zm17.22 4.72c0 .176.025.6.078 1.264a13.02 13.02 0 0 0-.957-.771L56.405 2.5h-1.743v9h2.316V6.64a11.73 11.73 0 0 0-.068-1.133c.194.18.408.354.636.52l7.418 5.472h1.742v-9H64.4V7.22zm15.3 2.436h-7.5v-5.4h7.5v5.4zM79.66 2.5h-7.4c-1 0-1.665.148-2.04.452s-.56.87-.56 1.725v4.647c0 .855.184 1.42.56 1.725s1.042.452 2.04.452h7.408c.998 0 1.665-.148 2.04-.452s.56-.87.56-1.725V4.677c0-.855-.183-1.42-.56-1.725S80.658 2.5 79.66 2.5zm8.126 1.7h5.157c.43 0 .623.05.707.1.164.086.243.257.243.523V5.88c0 .266-.08.436-.24.52-.087.042-.28.1-.7.1h-5.157V4.2zM94 8.168c1.572 0 2.37-.606 2.37-1.8V4.3c0-1.195-.796-1.8-2.37-1.8h-8.725v9h2.512V8.17h2.076l4.057 3.33h3.68l-4.644-3.33H94zm4.308-3.91h4.62V11.5h2.55V4.257h4.64V2.5h-11.8v1.757zm16.378 5.4V7.656h4.77V5.968h-4.77V4.2h7.772V2.5h-10.322v9h10.42V9.658h-7.87z"/></svg>