<svg width="75" height="75" viewBox="0 0 75 75" fill="none" xmlns="http://www.w3.org/2000/svg">
<circle cx="37.0833" cy="30.5" r="25" fill="#F8F8F8"/>
<path fill-rule="evenodd" clip-rule="evenodd" d="M47.4594 23.5979L41.8187 17.9573C41.5251 17.6656 41.1284 17.5013 40.7146 17.5H28.6458C27.7829 17.5 27.0833 18.1996 27.0833 19.0625V40.9375C27.0833 41.8004 27.7829 42.5 28.6458 42.5H47.3958C47.6835 42.5 47.9166 42.2668 47.9166 41.9792V24.7021C47.9177 24.2877 47.7531 23.8902 47.4594 23.5979ZM35.226 29.1489L31.7155 27.8364C30.7344 27.3685 30.1374 26.3501 30.2083 25.2655C30.1989 23.9005 31.2337 22.7544 32.5926 22.6249C32.7194 22.6053 32.8129 22.4959 32.8124 22.3676V21.6666C32.8124 21.0913 33.2788 20.6249 33.8541 20.6249C34.4294 20.6249 34.8958 21.0913 34.8958 21.6666V22.3176C34.8958 22.4614 35.0123 22.578 35.1562 22.578H36.4583C37.0335 22.578 37.4999 23.0444 37.4999 23.6197C37.4999 24.195 37.0335 24.6614 36.4583 24.6614H33.203C32.2916 24.6614 32.2916 25.1155 32.2916 25.2655C32.275 25.4942 32.3429 25.721 32.4822 25.903L35.9926 27.2155C36.9756 27.6841 37.573 28.7051 37.4999 29.7916C37.5066 31.1546 36.4724 32.2976 35.1155 32.427C34.9887 32.4466 34.8953 32.5559 34.8958 32.6843V33.3853C34.8958 33.9606 34.4294 34.427 33.8541 34.427C33.2788 34.427 32.8124 33.9606 32.8124 33.3853V32.7343C32.8124 32.5904 32.6958 32.4739 32.552 32.4739H31.2499C30.6746 32.4739 30.2083 32.0075 30.2083 31.4322C30.2083 30.8569 30.6746 30.3905 31.2499 30.3905H34.5051C35.4166 30.3905 35.4166 29.9364 35.4166 29.7864C35.4331 29.5577 35.3653 29.3309 35.226 29.1489ZM45.0521 33.6458C45.0521 33.2144 44.7023 32.8646 44.2708 32.8646H39.0625C38.631 32.8646 38.2812 33.2144 38.2812 33.6458C38.2812 34.0773 38.631 34.4271 39.0625 34.4271H44.2708C44.7023 34.4271 45.0521 34.0773 45.0521 33.6458ZM40.3647 28.9583C40.3647 28.5269 40.7145 28.1771 41.146 28.1771H44.271C44.7024 28.1771 45.0522 28.5269 45.0522 28.9583C45.0522 29.3898 44.7024 29.7396 44.271 29.7396H41.146C40.7145 29.7396 40.3647 29.3898 40.3647 28.9583ZM45.052 38.3332C45.052 37.9018 44.7022 37.552 44.2708 37.552H33.8541C33.4226 37.552 33.0728 37.9018 33.0728 38.3332C33.0728 38.7647 33.4226 39.1145 33.8541 39.1145H44.2708C44.7022 39.1145 45.052 38.7647 45.052 38.3332Z" fill="#850018"/>
<path d="M14.4478 66C14.1779 64.5085 12.9847 63.6278 11.5217 63.6278C9.66087 63.6278 8.31143 65.0625 8.31143 67.3636C8.31143 69.6648 9.66087 71.0994 11.5217 71.0994C12.9847 71.0994 14.1779 70.2188 14.4478 68.7273H13.5671C13.354 69.7358 12.4876 70.2756 11.5217 70.2756C10.2006 70.2756 9.16371 69.2528 9.16371 67.3636C9.16371 65.4744 10.2006 64.4517 11.5217 64.4517C12.4876 64.4517 13.354 64.9915 13.5671 66H14.4478ZM22.0073 67.3636C22.0073 65.0625 20.6578 63.6278 18.7971 63.6278C16.9363 63.6278 15.5868 65.0625 15.5868 67.3636C15.5868 69.6648 16.9363 71.0994 18.7971 71.0994C20.6578 71.0994 22.0073 69.6648 22.0073 67.3636ZM21.155 67.3636C21.155 69.2528 20.1181 70.2756 18.7971 70.2756C17.476 70.2756 16.4391 69.2528 16.4391 67.3636C16.4391 65.4744 17.476 64.4517 18.7971 64.4517C20.1181 64.4517 21.155 65.4744 21.155 67.3636ZM29.2551 63.7273H28.3887V69.4517H28.3176L24.3404 63.7273H23.4881V71H24.3688V65.2898H24.4398L28.4029 71H29.2551V63.7273ZM34.9947 65.5455H35.8469C35.8079 64.4482 34.7958 63.6278 33.3896 63.6278C31.9975 63.6278 30.9038 64.4375 30.9038 65.6591C30.9038 66.6392 31.614 67.2216 32.7504 67.5483L33.6452 67.804C34.4123 68.017 35.0941 68.2869 35.0941 69.0114C35.0941 69.8068 34.3271 70.3324 33.3185 70.3324C32.4521 70.3324 31.685 69.9489 31.614 69.125H30.7049C30.7901 70.3182 31.756 71.1278 33.3185 71.1278C34.9947 71.1278 35.9464 70.2045 35.9464 69.0256C35.9464 67.6619 34.6538 67.2216 33.9009 67.0227L33.1623 66.8239C32.6225 66.6818 31.756 66.3977 31.756 65.6165C31.756 64.9205 32.3952 64.4091 33.3612 64.4091C34.2418 64.4091 34.9094 64.8281 34.9947 65.5455ZM42.1671 63.7273V68.4716C42.1671 69.5369 41.4355 70.304 40.2211 70.304C39.0066 70.304 38.275 69.5369 38.275 68.4716V63.7273H37.3944V68.5426C37.3944 70.0341 38.5094 71.1278 40.2211 71.1278C41.9327 71.1278 43.0478 70.0341 43.0478 68.5426V63.7273H42.1671ZM44.8065 71H49.0678V70.2188H45.6871V63.7273H44.8065V71ZM49.0669 64.5085H51.3539V71H52.2346V64.5085H54.5215V63.7273H49.0669V64.5085ZM55.3294 71L56.0609 68.9403H59.0012L59.7328 71H60.6561L57.9856 63.7273H57.0765L54.4061 71H55.3294ZM56.3379 68.1591L57.5027 64.8778H57.5595L58.7243 68.1591H56.3379ZM65.7662 65.5455H66.6184C66.5794 64.4482 65.5673 63.6278 64.161 63.6278C62.769 63.6278 61.6752 64.4375 61.6752 65.6591C61.6752 66.6392 62.3855 67.2216 63.5218 67.5483L64.4167 67.804C65.1838 68.017 65.8656 68.2869 65.8656 69.0114C65.8656 69.8068 65.0985 70.3324 64.09 70.3324C63.2235 70.3324 62.4565 69.9489 62.3855 69.125H61.4764C61.5616 70.3182 62.5275 71.1278 64.09 71.1278C65.7662 71.1278 66.7179 70.2045 66.7179 69.0256C66.7179 67.6619 65.4252 67.2216 64.6724 67.0227L63.9338 66.8239C63.394 66.6818 62.5275 66.3977 62.5275 65.6165C62.5275 64.9205 63.1667 64.4091 64.1326 64.4091C65.0133 64.4091 65.6809 64.8281 65.7662 65.5455Z" fill="#F8F8F8"/>
</svg>
